<svg xmlns="http://www.w3.org/2000/svg" version="1.1" xmlns:xlink="http://www.w3.org/1999/xlink" xmlns:svgjs="http://svgjs.dev/svgjs" width="1500" height="522" viewBox="0 0 1500 522"><g transform="matrix(1,0,0,1,-0.9090909090909918,0.018092967936979676)"><svg viewBox="0 0 396 138" data-background-color="#ffffff" preserveAspectRatio="xMidYMid meet" height="522" width="1500" xmlns="http://www.w3.org/2000/svg" xmlns:xlink="http://www.w3.org/1999/xlink"><g id="tight-bounds" transform="matrix(1,0,0,1,0.2400000000000091,-0.004783198420113877)"><svg viewBox="0 0 395.52 138.00956639684023" height="138.00956639684023" width="395.52"><g><svg viewBox="0 0 578.4195317608851 201.82905737708109" height="138.00956639684023" width="395.52"><g transform="matrix(1,0,0,1,182.8995317608851,0)"><svg viewBox="0 0 395.52 201.82905737708109" height="201.82905737708109" width="395.52"><g id="textblocktransform"><svg viewBox="0 0 395.52 201.82905737708109" height="201.82905737708109" width="395.52" id="textblock"><g><svg viewBox="0 0 395.52 144.9349351834946" height="144.9349351834946" width="395.52"><g transform="matrix(1,0,0,1,0,0)"><svg width="395.52" viewBox="3.54 -37.55 133.98000000000002 48.99999999999999" height="144.9349351834946" data-palette-color="url(#bb0f08fc-4dc4-4ffd-b016-85643b6d89eb)"><g class="wordmark-text-0" data-fill-palette-color="primary" id="text-0"></g></svg></g></svg></g><g transform="matrix(1,0,0,1,0,179.15059494187327)"><svg viewBox="0 0 232.20979200000002 22.678462435207827" height="22.678462435207827" width="232.20979200000002"><g transform="matrix(1,0,0,1,0,0)"><svg width="232.20979200000002" viewBox="1 -35.3 368.07 35.949999999999996" height="22.678462435207827" data-palette-color="url(#4a8a8329-957c-4fe6-bd52-1f66d5e085d5)"></svg></g></svg></g></svg></g></svg></g><g transform="matrix(1,0,0,1,0,1.8951748487707931)"><svg viewBox="0 0 148.68387200250643 198.0387076795395" height="198.0387076795395" width="148.68387200250643"><g><svg xmlns="http://www.w3.org/2000/svg" xmlns:xlink="http://www.w3.org/1999/xlink" version="1.1" x="0" y="0" viewBox="8 2.0249939 36 47.9500122" enable-background="new 0 0 52 52" xml:space="preserve" height="198.0387076795395" width="148.68387200250643" class="icon-icon-0" data-fill-palette-color="accent" id="icon-0"></svg></g></svg></g></svg></g><defs></defs><mask id="d093f43a-a768-4f61-bc2f-97723a6f3e99"><g id="SvgjsG2658"><svg viewBox="0 0 395.52 138.00956639684023" height="138.00956639684023" width="395.52"><g><svg viewBox="0 0 578.4195317608851 201.82905737708109" height="138.00956639684023" width="395.52"><g transform="matrix(1,0,0,1,182.8995317608851,0)"><svg viewBox="0 0 395.52 201.82905737708109" height="201.82905737708109" width="395.52"><g id="SvgjsG2657"><svg viewBox="0 0 395.52 201.82905737708109" height="201.82905737708109" width="395.52" id="SvgjsSvg2656"><g><svg viewBox="0 0 395.52 144.9349351834946" height="144.9349351834946" width="395.52"><g transform="matrix(1,0,0,1,0,0)"><svg width="395.52" viewBox="3.54 -37.55 133.98000000000002 48.99999999999999" height="144.9349351834946" data-palette-color="url(#bb0f08fc-4dc4-4ffd-b016-85643b6d89eb)"><g class="wordmark-text-0" data-fill-palette-color="primary" id="SvgjsG2655"><path d="M32.47-20.7L32.47-14.31 12.43-14.31 12.43-20.7 32.47-20.7ZM35.33-6.35L35.33 0 12.43 0Q11.11 0 9.55-0.46 7.98-0.93 6.65-1.99 5.32-3.05 4.43-4.75 3.54-6.45 3.54-8.91L3.54-8.91 3.54-31.81Q3.54-32.47 3.78-33.06 4.03-33.64 4.46-34.08 4.88-34.52 5.47-34.77 6.05-35.01 6.74-35.01L6.74-35.01 35.33-35.01 35.33-28.66 9.89-28.66 9.89-8.91Q9.89-7.67 10.55-7.01 11.21-6.35 12.48-6.35L12.48-6.35 35.33-6.35ZM69.85-26.39L69.85 2.54Q69.85 4.17 69.43 5.48 69.02 6.79 68.33 7.78 67.65 8.76 66.75 9.46 65.84 10.16 64.85 10.6 63.86 11.04 62.86 11.24 61.86 11.45 60.96 11.45L60.96 11.45 49.51 11.45 49.51 5.1 60.96 5.1Q62.23 5.1 62.86 4.44 63.5 3.78 63.5 2.54L63.5 2.54 63.5-26.39 69.85-26.39ZM60.96-6.35L60.96 0 49.51 0Q48.14 0 46.59-0.46 45.04-0.93 43.7-1.99 42.36-3.05 41.48-4.75 40.6-6.45 40.6-8.91L40.6-8.91 40.6-26.39 46.95-26.39 46.95-8.91Q46.95-7.67 47.6-7.01 48.26-6.35 49.56-6.35L49.56-6.35 60.96-6.35ZM103.14-17.65L103.14-8.74Q103.14-7.42 102.68-5.9 102.22-4.37 101.18-3.06 100.14-1.76 98.47-0.88 96.8 0 94.4 0L94.4 0 82.95 0Q81.64 0 80.11-0.46 78.58-0.93 77.28-1.97 75.97-3 75.09-4.68 74.21-6.35 74.21-8.74L74.21-8.74Q74.21-10.06 74.68-11.6 75.14-13.13 76.18-14.44 77.22-15.75 78.89-16.63 80.56-17.5 82.95-17.5L82.95-17.5 94.4-17.5 94.4-11.45 82.95-11.45Q81.66-11.45 80.95-10.66 80.24-9.86 80.24-8.69L80.24-8.69Q80.24-7.45 81.06-6.75 81.88-6.05 83-6.05L83-6.05 94.4-6.05Q95.7-6.05 96.41-6.84 97.11-7.62 97.11-8.79L97.11-8.79 97.11-17.65Q97.11-18.9 96.35-19.63 95.58-20.36 94.4-20.36L94.4-20.36 80.46-20.36 80.46-26.39 94.4-26.39Q95.72-26.39 97.25-25.93 98.77-25.46 100.08-24.43 101.39-23.39 102.27-21.72 103.14-20.04 103.14-17.65L103.14-17.65ZM137.52-37.55L137.52-8.91Q137.52-7.28 137.1-5.97 136.69-4.66 136-3.67 135.32-2.69 134.42-1.99 133.51-1.29 132.52-0.85 131.54-0.42 130.52-0.21 129.51 0 128.61 0L128.61 0 117.16 0Q115.52 0 114.23-0.42 112.93-0.83 111.94-1.53 110.95-2.22 110.26-3.13 109.56-4.03 109.12-5.02 108.68-6.01 108.48-7.02 108.27-8.03 108.27-8.91L108.27-8.91 108.27-17.5Q108.27-19.95 109.16-21.64 110.05-23.34 111.38-24.4 112.71-25.46 114.27-25.93 115.84-26.39 117.16-26.39L117.16-26.39 128.61-26.39 128.61-20.04 117.2-20.04Q115.93-20.04 115.28-19.4 114.62-18.75 114.62-17.5L114.62-17.5 114.62-8.96Q114.62-7.67 115.26-7.01 115.91-6.35 117.16-6.35L117.16-6.35 128.61-6.35Q129.9-6.35 130.53-7.01 131.17-7.67 131.17-8.91L131.17-8.91 131.17-37.55 137.52-37.55Z" fill="white"></path></g></svg></g></svg></g><g transform="matrix(1,0,0,1,0,179.15059494187327)"><svg viewBox="0 0 232.20979200000002 22.678462435207827" height="22.678462435207827" width="232.20979200000002"><g transform="matrix(1,0,0,1,0,0)"><svg width="232.20979200000002" viewBox="1 -35.3 368.07 35.949999999999996" height="22.678462435207827" data-palette-color="url(#4a8a8329-957c-4fe6-bd52-1f66d5e085d5)"><path d="M42.55-35.2L42.55-35.2Q43.75-35.2 44.35-34.75 44.95-34.3 44.9-33.4L44.9-33.4Q44.9-32.95 44.75-32.33 44.6-31.7 44.45-31.1L44.45-31.1 35.75-0.1Q34.95 0.25 34.25 0.4 33.55 0.55 33 0.55L33 0.55Q32.05 0.55 31.38 0.23 30.7-0.1 30.5-0.75L30.5-0.75 23.3-26.2 15.8-0.1Q15 0.25 14.33 0.4 13.65 0.55 13.15 0.55L13.15 0.55Q12.05 0.55 11.35 0.23 10.65-0.1 10.5-0.75L10.5-0.75 2.2-32.05Q2.05-32.6 1.73-33.27 1.4-33.95 1-34.35L1-34.35Q1.35-34.75 1.95-35.02 2.55-35.3 3.45-35.3L3.45-35.3Q4.5-35.3 5.18-34.9 5.85-34.5 6.05-33.7L6.05-33.7 13.65-2.9 20.95-28.65Q21.15-29.55 21.08-30.13 21-30.7 20.8-31.1L20.8-31.1Q21.4-31.4 22.2-31.58 23-31.75 23.6-31.75L23.6-31.75Q24.3-31.75 24.88-31.53 25.45-31.3 25.6-30.85L25.6-30.85 33.55-2.95 40.45-32.05Q40.55-32.45 40.65-32.88 40.75-33.3 40.75-33.65L40.75-33.65Q40.75-34.05 40.68-34.33 40.6-34.6 40.45-34.85L40.45-34.85Q40.9-35 41.38-35.1 41.85-35.2 42.55-35.2ZM69.15 0L53.25 0Q52.25 0 51.6-0.6 50.95-1.2 50.95-2.25L50.95-2.25 50.9-28.45Q50.9-29.95 50.77-31.23 50.65-32.5 50.25-33.6L50.25-33.6Q50.95-34.25 51.67-34.45 52.4-34.65 53.7-34.65L53.7-34.65 68.8-34.65Q69.25-34.65 69.42-34.18 69.6-33.7 69.5-33.05 69.4-32.4 69.1-31.85 68.8-31.3 68.4-31.1L68.4-31.1Q65.15-31.65 61.8-32 58.45-32.35 54.9-32.4L54.9-32.4 54.95-2.2Q57.35-2.25 59.92-2.48 62.5-2.7 64.92-3 67.35-3.3 69.3-3.6L69.3-3.6Q69.7-3.35 69.92-2.78 70.15-2.2 70.15-1.58 70.15-0.95 69.9-0.48 69.65 0 69.15 0L69.15 0ZM67.2-17L54.15-17 54.15-19.4 67.2-19.4Q67.35-18.8 67.35-18.18 67.35-17.55 67.2-17L67.2-17ZM84.95 0L80.15 0Q79.1 0 78.45-0.6 77.8-1.2 77.75-2.25L77.75-2.25 77.75-28.85Q77.75-29.35 77.72-30.35 77.7-31.35 77.55-32.43 77.4-33.5 77.1-34.2L77.1-34.2Q77.9-34.6 79.52-34.95 81.15-35.3 84.25-35.3L84.25-35.3Q90.55-35.3 93.87-33.33 97.2-31.35 97.2-26.8L97.2-26.8Q97.2-23.75 95.62-21.5 94.05-19.25 91.05-18.35L91.05-18.35Q94.85-17.75 96.9-15.5 98.95-13.25 98.95-9.4L98.95-9.4Q98.95-5.9 97.3-3.83 95.65-1.75 92.52-0.88 89.4 0 84.95 0L84.95 0ZM81.8-33.4L81.8-1.85 85.1-1.85Q88.2-1.85 90.3-2.6 92.4-3.35 93.5-5 94.6-6.65 94.6-9.35L94.6-9.35Q94.6-12.5 93.42-14.2 92.25-15.9 90.12-16.57 88-17.25 85.1-17.25L85.1-17.25 81.25-17.25 80.9-19.1 86-19.1Q88-19.05 89.57-19.88 91.15-20.7 92.05-22.4 92.95-24.1 92.95-26.55L92.95-26.55Q92.95-30.1 90.87-31.8 88.8-33.5 84.05-33.5L84.05-33.5Q83.3-33.5 82.75-33.48 82.2-33.45 81.8-33.4L81.8-33.4ZM128.64 0L120.94 0Q119.89 0 119.27-0.6 118.64-1.2 118.64-2.2L118.64-2.2 118.54-28.85Q118.54-30.35 118.49-32.05 118.44-33.75 118.04-34.85L118.04-34.85Q119.39-35 121.29-35.08 123.19-35.15 125.12-35.18 127.04-35.2 128.44-35.2L128.44-35.2Q135.39-35.2 139.17-30.83 142.94-26.45 142.94-17.55L142.94-17.55Q142.94-8.3 139.19-4.15 135.44 0 128.64 0L128.64 0ZM122.54-33.3L122.59-1.85 128.44-1.85Q131.74-1.85 133.99-3.38 136.24-4.9 137.39-8.3 138.54-11.7 138.54-17.3L138.54-17.3Q138.54-25.65 135.97-29.48 133.39-33.3 128.44-33.3L128.44-33.3 122.54-33.3ZM168.99 0L153.09 0Q152.09 0 151.44-0.6 150.79-1.2 150.79-2.25L150.79-2.25 150.74-28.45Q150.74-29.95 150.61-31.23 150.49-32.5 150.09-33.6L150.09-33.6Q150.79-34.25 151.51-34.45 152.24-34.65 153.54-34.65L153.54-34.65 168.64-34.65Q169.09-34.65 169.26-34.18 169.44-33.7 169.34-33.05 169.24-32.4 168.94-31.85 168.64-31.3 168.24-31.1L168.24-31.1Q164.99-31.65 161.64-32 158.29-32.35 154.74-32.4L154.74-32.4 154.79-2.2Q157.19-2.25 159.76-2.48 162.34-2.7 164.76-3 167.19-3.3 169.14-3.6L169.14-3.6Q169.54-3.35 169.76-2.78 169.99-2.2 169.99-1.58 169.99-0.95 169.74-0.48 169.49 0 168.99 0L168.99 0ZM167.04-17L153.99-17 153.99-19.4 167.04-19.4Q167.19-18.8 167.19-18.18 167.19-17.55 167.04-17L167.04-17ZM187.09 0.55L187.09 0.55Q184.84 0.55 184.39-0.75L184.39-0.75 174.44-32.05Q174.29-32.6 173.99-33.27 173.69-33.95 173.24-34.35L173.24-34.35Q173.64-34.75 174.21-35.02 174.79-35.3 175.74-35.3L175.74-35.3Q177.89-35.3 178.29-33.7L178.29-33.7 188.19-0.3 186.89-0.3 196.19-32.15Q196.29-32.5 196.39-32.95 196.49-33.4 196.49-33.75L196.49-33.75Q196.49-34.1 196.41-34.4 196.34-34.7 196.19-34.9L196.19-34.9Q196.64-35.1 197.11-35.2 197.59-35.3 198.29-35.3L198.29-35.3Q199.49-35.3 200.09-34.85 200.69-34.4 200.64-33.5L200.64-33.5Q200.64-33.05 200.51-32.43 200.39-31.8 200.19-31.2L200.19-31.2 189.79-0.1Q188.99 0.25 188.29 0.4 187.59 0.55 187.09 0.55ZM224.83 0L208.93 0Q207.93 0 207.28-0.6 206.63-1.2 206.63-2.25L206.63-2.25 206.58-28.45Q206.58-29.95 206.46-31.23 206.33-32.5 205.93-33.6L205.93-33.6Q206.63-34.25 207.36-34.45 208.08-34.65 209.38-34.65L209.38-34.65 224.48-34.65Q224.93-34.65 225.11-34.18 225.28-33.7 225.18-33.05 225.08-32.4 224.78-31.85 224.48-31.3 224.08-31.1L224.08-31.1Q220.83-31.65 217.48-32 214.13-32.35 210.58-32.4L210.58-32.4 210.63-2.2Q213.03-2.25 215.61-2.48 218.18-2.7 220.61-3 223.03-3.3 224.98-3.6L224.98-3.6Q225.38-3.35 225.61-2.78 225.83-2.2 225.83-1.58 225.83-0.95 225.58-0.48 225.33 0 224.83 0L224.83 0ZM222.88-17L209.83-17 209.83-19.4 222.88-19.4Q223.03-18.8 223.03-18.18 223.03-17.55 222.88-17L222.88-17ZM237.43-32.9L237.43-32.9 237.48-2.4Q239.73-2.4 242.03-2.6 244.33-2.8 246.53-3.1 248.73-3.4 250.53-3.75L250.53-3.75Q250.93-3.55 251.13-2.93 251.33-2.3 251.33-1.63 251.33-0.95 251.11-0.48 250.88 0 250.33 0L250.33 0 235.78 0Q234.78 0 234.13-0.6 233.48-1.2 233.48-2.25L233.48-2.25 233.43-28.85Q233.43-30.35 233.31-31.73 233.18-33.1 232.78-34.2L232.78-34.2Q233.08-34.5 233.68-34.8 234.28-35.1 235.13-35.1L235.13-35.1Q236.13-35.1 236.78-34.52 237.43-33.95 237.43-32.9ZM267.78 0.65L267.78 0.65Q261.38 0.65 257.93-3.78 254.48-8.2 254.48-17.3L254.48-17.3Q254.48-26.4 257.93-30.85 261.38-35.3 267.78-35.3L267.78-35.3Q274.23-35.3 277.68-30.85 281.13-26.4 281.13-17.3L281.13-17.3Q281.13-8.2 277.68-3.78 274.23 0.65 267.78 0.65ZM267.78-1.2L267.78-1.2Q272.18-1.2 274.43-5.08 276.68-8.95 276.68-17.3L276.68-17.3Q276.68-25.7 274.43-29.58 272.18-33.45 267.78-33.45L267.78-33.45Q263.48-33.45 261.2-29.58 258.93-25.7 258.93-17.3L258.93-17.3Q258.93-8.95 261.2-5.08 263.48-1.2 267.78-1.2ZM296.08 0L291.28 0Q290.23 0 289.58-0.6 288.93-1.2 288.88-2.25L288.88-2.25 288.88-28.85Q288.88-29.35 288.85-30.35 288.83-31.35 288.68-32.43 288.53-33.5 288.23-34.2L288.23-34.2Q289.03-34.6 290.65-34.95 292.28-35.3 295.38-35.3L295.38-35.3Q301.68-35.3 305-33.33 308.33-31.35 308.33-26.8L308.33-26.8Q308.33-23.75 306.75-21.5 305.18-19.25 302.18-18.35L302.18-18.35Q305.98-17.75 308.03-15.5 310.08-13.25 310.08-9.4L310.08-9.4Q310.08-5.9 308.43-3.83 306.78-1.75 303.65-0.88 300.53 0 296.08 0L296.08 0ZM292.93-33.4L292.93-1.85 296.23-1.85Q299.33-1.85 301.43-2.6 303.53-3.35 304.63-5 305.73-6.65 305.73-9.35L305.73-9.35Q305.73-12.5 304.55-14.2 303.38-15.9 301.25-16.57 299.13-17.25 296.23-17.25L296.23-17.25 292.38-17.25 292.03-19.1 297.13-19.1Q299.13-19.05 300.7-19.88 302.28-20.7 303.18-22.4 304.08-24.1 304.08-26.55L304.08-26.55Q304.08-30.1 302-31.8 299.93-33.5 295.18-33.5L295.18-33.5Q294.43-33.5 293.88-33.48 293.33-33.45 292.93-33.4L292.93-33.4ZM336.07 0L320.17 0Q319.17 0 318.52-0.6 317.87-1.2 317.87-2.25L317.87-2.25 317.82-28.45Q317.82-29.95 317.7-31.23 317.57-32.5 317.17-33.6L317.17-33.6Q317.87-34.25 318.6-34.45 319.32-34.65 320.62-34.65L320.62-34.65 335.72-34.65Q336.17-34.65 336.35-34.18 336.52-33.7 336.42-33.05 336.32-32.4 336.02-31.85 335.72-31.3 335.32-31.1L335.32-31.1Q332.07-31.65 328.72-32 325.37-32.35 321.82-32.4L321.82-32.4 321.87-2.2Q324.27-2.25 326.85-2.48 329.42-2.7 331.85-3 334.27-3.3 336.22-3.6L336.22-3.6Q336.62-3.35 336.85-2.78 337.07-2.2 337.07-1.58 337.07-0.95 336.82-0.48 336.57 0 336.07 0L336.07 0ZM334.12-17L321.07-17 321.07-19.4 334.12-19.4Q334.27-18.8 334.27-18.18 334.27-17.55 334.12-17L334.12-17ZM347.07 0.55L347.07 0.55Q346.02 0.55 345.37-0.05 344.72-0.65 344.67-1.65L344.67-1.65 344.67-28.85Q344.67-29.35 344.65-30.35 344.62-31.35 344.47-32.43 344.32-33.5 344.02-34.2L344.02-34.2Q344.82-34.6 346.52-34.95 348.22-35.3 351.37-35.3L351.37-35.3Q358.42-35.3 361.87-33.1 365.32-30.9 365.32-25.85L365.32-25.85Q365.32-22.95 364.02-20.8 362.72-18.65 360.42-17.4 358.12-16.15 355.12-15.95L355.12-15.95 355.42-16.65Q357.47-16.65 358.8-15.93 360.12-15.2 360.97-14 361.82-12.8 362.47-11.3L362.47-11.3 364.97-5.4Q365.57-3.9 366.12-3.3 366.67-2.7 367.32-2.65L367.32-2.65Q367.57-2.65 368-2.78 368.42-2.9 368.77-3.3L368.77-3.3Q368.97-2.95 369.02-2.63 369.07-2.3 369.07-2L369.07-2Q369.07-1.15 368.55-0.58 368.02 0 367.32 0.28 366.62 0.55 366.07 0.55L366.07 0.55Q364.77 0.55 363.87-0.05 362.97-0.65 362.32-1.78 361.67-2.9 361.02-4.4L361.02-4.4 358.72-10.3Q358.22-11.55 357.62-12.7 357.02-13.85 355.85-14.55 354.67-15.25 352.42-15.25L352.42-15.25 348.22-15.3 347.77-17.15Q348.72-17.1 349.92-17.07 351.12-17.05 352.62-17.05L352.62-17.05Q355.02-17.1 356.9-18.15 358.77-19.2 359.85-21.08 360.92-22.95 360.92-25.5L360.92-25.5Q360.92-29.55 358.72-31.53 356.52-33.5 351.57-33.5L351.57-33.5Q350.57-33.5 349.87-33.48 349.17-33.45 348.72-33.35L348.72-33.35 348.72-5.55Q348.72-5.05 348.77-4.08 348.82-3.1 348.97-2.1 349.12-1.1 349.37-0.35L349.37-0.35Q349.07-0.1 348.5 0.23 347.92 0.55 347.07 0.55Z" opacity="1" transform="matrix(1,0,0,1,0,0)" fill="black" class="slogan-text-1" id="SvgjsPath2654"></path></svg></g></svg></g></svg></g></svg></g><g transform="matrix(1,0,0,1,0,1.8951748487707931)"><svg viewBox="0 0 148.68387200250643 198.0387076795395" height="198.0387076795395" width="148.68387200250643"><g><svg xmlns="http://www.w3.org/2000/svg" xmlns:xlink="http://www.w3.org/1999/xlink" version="1.1" x="0" y="0" viewBox="8 2.0249939 36 47.9500122" enable-background="new 0 0 52 52" xml:space="preserve" height="198.0387076795395" width="148.68387200250643" class="icon-icon-0" data-fill-palette-color="accent" id="SvgjsSvg2653"><g fill="black"><g fill="black"><path d="M35.01 9.935V2.665c0.1 0.08 0.2 0.15 0.29 0.24l7.83 7.83c0.09 0.09 0.16 0.19 0.24 0.29h-7.36C35.46 11.025 35.01 10.535 35.01 9.935z" fill="black"></path></g><g fill="black"><g fill="black"><rect x="24.3048706" y="23.0585022" width="2" height="0.9423828" fill="black"></rect></g><g fill="black"><rect x="19.5021362" y="23.0585022" width="2" height="0.9423828" fill="black"></rect></g><g fill="black"><path d="M36.01 13.025c-1.66 0-3-1.38-3-3.09V2.025H11c-1.65 0-3 1.35-3 3v41.95c0 1.65 1.35 3 3 3h30c1.66 0 3-1.35 3-3V13.025H36.01zM35.5 38.001h-19V27.001h19V38.001zM35.5 25.001h-19v-5h19V25.001z" fill="black"></path></g><g fill="black"><rect x="29.5021362" y="23.0585022" width="2" height="0.9423828" fill="black"></rect></g></g></g></svg></g></svg></g></svg></g><defs><mask></mask></defs></svg><rect width="395.52" height="138.00956639684023" fill="black" stroke="none" visibility="hidden"></rect></g></mask><linearGradient x1="0" x2="1" y1="0.578" y2="0.595" id="bb0f08fc-4dc4-4ffd-b016-85643b6d89eb"><stop stop-color="#6ee2f5" offset="0"></stop><stop stop-color="#6454f0" offset="1"></stop></linearGradient><rect width="395.52" height="138.00956639684023" fill="url(#bb0f08fc-4dc4-4ffd-b016-85643b6d89eb)" mask="url(#d093f43a-a768-4f61-bc2f-97723a6f3e99)" data-fill-palette-color="primary"></rect><mask id="2f7ecd8b-1280-4871-b330-bde52556ea00"><g id="SvgjsG2670"><svg viewBox="0 0 395.52 138.00956639684023" height="138.00956639684023" width="395.52"><g><svg viewBox="0 0 578.4195317608851 201.82905737708109" height="138.00956639684023" width="395.52"><g transform="matrix(1,0,0,1,182.8995317608851,0)"><svg viewBox="0 0 395.52 201.82905737708109" height="201.82905737708109" width="395.52"><g id="SvgjsG2669"><svg viewBox="0 0 395.52 201.82905737708109" height="201.82905737708109" width="395.52" id="SvgjsSvg2668"><g><svg viewBox="0 0 395.52 144.9349351834946" height="144.9349351834946" width="395.52"><g transform="matrix(1,0,0,1,0,0)"><svg width="395.52" viewBox="3.54 -37.55 133.98000000000002 48.99999999999999" height="144.9349351834946" data-palette-color="url(#bb0f08fc-4dc4-4ffd-b016-85643b6d89eb)"><g class="wordmark-text-0" data-fill-palette-color="primary" id="SvgjsG2667"></g></svg></g></svg></g><g transform="matrix(1,0,0,1,0,179.15059494187327)"><svg viewBox="0 0 232.20979200000002 22.678462435207827" height="22.678462435207827" width="232.20979200000002"><g transform="matrix(1,0,0,1,0,0)"><svg width="232.20979200000002" viewBox="1 -35.3 368.07 35.949999999999996" height="22.678462435207827" data-palette-color="url(#4a8a8329-957c-4fe6-bd52-1f66d5e085d5)"><path d="M42.55-35.2L42.55-35.2Q43.75-35.2 44.35-34.75 44.95-34.3 44.9-33.4L44.9-33.4Q44.9-32.95 44.75-32.33 44.6-31.7 44.45-31.1L44.45-31.1 35.75-0.1Q34.95 0.25 34.25 0.4 33.55 0.55 33 0.55L33 0.55Q32.05 0.55 31.38 0.23 30.7-0.1 30.5-0.75L30.5-0.75 23.3-26.2 15.8-0.1Q15 0.25 14.33 0.4 13.65 0.55 13.15 0.55L13.15 0.55Q12.05 0.55 11.35 0.23 10.65-0.1 10.5-0.75L10.5-0.75 2.2-32.05Q2.05-32.6 1.73-33.27 1.4-33.95 1-34.35L1-34.35Q1.35-34.75 1.95-35.02 2.55-35.3 3.45-35.3L3.45-35.3Q4.5-35.3 5.18-34.9 5.85-34.5 6.05-33.7L6.05-33.7 13.65-2.9 20.95-28.65Q21.15-29.55 21.08-30.13 21-30.7 20.8-31.1L20.8-31.1Q21.4-31.4 22.2-31.58 23-31.75 23.6-31.75L23.6-31.75Q24.3-31.75 24.88-31.53 25.45-31.3 25.6-30.85L25.6-30.85 33.55-2.95 40.45-32.05Q40.55-32.45 40.65-32.88 40.75-33.3 40.75-33.65L40.75-33.65Q40.75-34.05 40.68-34.33 40.6-34.6 40.45-34.85L40.45-34.85Q40.9-35 41.38-35.1 41.85-35.2 42.55-35.2ZM69.15 0L53.25 0Q52.25 0 51.6-0.6 50.95-1.2 50.95-2.25L50.95-2.25 50.9-28.45Q50.9-29.95 50.77-31.23 50.65-32.5 50.25-33.6L50.25-33.6Q50.95-34.25 51.67-34.45 52.4-34.65 53.7-34.65L53.7-34.65 68.8-34.65Q69.25-34.65 69.42-34.18 69.6-33.7 69.5-33.05 69.4-32.4 69.1-31.85 68.8-31.3 68.4-31.1L68.4-31.1Q65.15-31.65 61.8-32 58.45-32.35 54.9-32.4L54.9-32.4 54.95-2.2Q57.35-2.25 59.92-2.48 62.5-2.7 64.92-3 67.35-3.3 69.3-3.6L69.3-3.6Q69.7-3.35 69.92-2.78 70.15-2.2 70.15-1.58 70.15-0.95 69.9-0.48 69.65 0 69.15 0L69.15 0ZM67.2-17L54.15-17 54.15-19.4 67.2-19.4Q67.35-18.8 67.35-18.18 67.35-17.55 67.2-17L67.2-17ZM84.95 0L80.15 0Q79.1 0 78.45-0.6 77.8-1.2 77.75-2.25L77.75-2.25 77.75-28.85Q77.75-29.35 77.72-30.35 77.7-31.35 77.55-32.43 77.4-33.5 77.1-34.2L77.1-34.2Q77.9-34.6 79.52-34.95 81.15-35.3 84.25-35.3L84.25-35.3Q90.55-35.3 93.87-33.33 97.2-31.35 97.2-26.8L97.2-26.8Q97.2-23.75 95.62-21.5 94.05-19.25 91.05-18.35L91.05-18.35Q94.85-17.75 96.9-15.5 98.95-13.25 98.95-9.4L98.95-9.4Q98.95-5.9 97.3-3.83 95.65-1.75 92.52-0.88 89.4 0 84.95 0L84.95 0ZM81.8-33.4L81.8-1.85 85.1-1.85Q88.2-1.85 90.3-2.6 92.4-3.35 93.5-5 94.6-6.65 94.6-9.35L94.6-9.35Q94.6-12.5 93.42-14.2 92.25-15.9 90.12-16.57 88-17.25 85.1-17.25L85.1-17.25 81.25-17.25 80.9-19.1 86-19.1Q88-19.05 89.57-19.88 91.15-20.7 92.05-22.4 92.95-24.1 92.95-26.55L92.95-26.55Q92.95-30.1 90.87-31.8 88.8-33.5 84.05-33.5L84.05-33.5Q83.3-33.5 82.75-33.48 82.2-33.45 81.8-33.4L81.8-33.4ZM128.64 0L120.94 0Q119.89 0 119.27-0.6 118.64-1.2 118.64-2.2L118.64-2.2 118.54-28.85Q118.54-30.35 118.49-32.05 118.44-33.75 118.04-34.85L118.04-34.85Q119.39-35 121.29-35.08 123.19-35.15 125.12-35.18 127.04-35.2 128.44-35.2L128.44-35.2Q135.39-35.2 139.17-30.83 142.94-26.45 142.94-17.55L142.94-17.55Q142.94-8.3 139.19-4.15 135.44 0 128.64 0L128.64 0ZM122.54-33.3L122.59-1.85 128.44-1.85Q131.74-1.85 133.99-3.38 136.24-4.9 137.39-8.3 138.54-11.7 138.54-17.3L138.54-17.3Q138.54-25.65 135.97-29.48 133.39-33.3 128.44-33.3L128.44-33.3 122.54-33.3ZM168.99 0L153.09 0Q152.09 0 151.44-0.6 150.79-1.2 150.79-2.25L150.79-2.25 150.74-28.45Q150.74-29.95 150.61-31.23 150.49-32.5 150.09-33.6L150.09-33.6Q150.79-34.25 151.51-34.45 152.24-34.65 153.54-34.65L153.54-34.65 168.64-34.65Q169.09-34.65 169.26-34.18 169.44-33.7 169.34-33.05 169.24-32.4 168.94-31.85 168.64-31.3 168.24-31.1L168.24-31.1Q164.99-31.65 161.64-32 158.29-32.35 154.74-32.4L154.74-32.4 154.79-2.2Q157.19-2.25 159.76-2.48 162.34-2.7 164.76-3 167.19-3.3 169.14-3.6L169.14-3.6Q169.54-3.35 169.76-2.78 169.99-2.2 169.99-1.58 169.99-0.95 169.74-0.48 169.49 0 168.99 0L168.99 0ZM167.04-17L153.99-17 153.99-19.4 167.04-19.4Q167.19-18.8 167.19-18.18 167.19-17.55 167.04-17L167.04-17ZM187.09 0.55L187.09 0.55Q184.84 0.55 184.39-0.75L184.39-0.75 174.44-32.05Q174.29-32.6 173.99-33.27 173.69-33.95 173.24-34.35L173.24-34.35Q173.64-34.75 174.21-35.02 174.79-35.3 175.74-35.3L175.74-35.3Q177.89-35.3 178.29-33.7L178.29-33.7 188.19-0.3 186.89-0.3 196.19-32.15Q196.29-32.5 196.39-32.95 196.49-33.4 196.49-33.75L196.49-33.75Q196.49-34.1 196.41-34.4 196.34-34.7 196.19-34.9L196.19-34.9Q196.64-35.1 197.11-35.2 197.59-35.3 198.29-35.3L198.29-35.3Q199.49-35.3 200.09-34.85 200.69-34.4 200.64-33.5L200.64-33.5Q200.64-33.05 200.51-32.43 200.39-31.8 200.19-31.2L200.19-31.2 189.79-0.1Q188.99 0.25 188.29 0.4 187.59 0.55 187.09 0.55ZM224.83 0L208.93 0Q207.93 0 207.28-0.6 206.63-1.2 206.63-2.25L206.63-2.25 206.58-28.45Q206.58-29.95 206.46-31.23 206.33-32.5 205.93-33.6L205.93-33.6Q206.63-34.25 207.36-34.45 208.08-34.65 209.38-34.65L209.38-34.65 224.48-34.65Q224.93-34.65 225.11-34.18 225.28-33.7 225.18-33.05 225.08-32.4 224.78-31.85 224.48-31.3 224.08-31.1L224.08-31.1Q220.83-31.65 217.48-32 214.13-32.35 210.58-32.4L210.58-32.4 210.63-2.2Q213.03-2.25 215.61-2.48 218.18-2.7 220.61-3 223.03-3.3 224.98-3.6L224.98-3.6Q225.38-3.35 225.61-2.78 225.83-2.2 225.83-1.58 225.83-0.95 225.58-0.48 225.33 0 224.83 0L224.83 0ZM222.88-17L209.83-17 209.83-19.4 222.88-19.4Q223.03-18.8 223.03-18.18 223.03-17.55 222.88-17L222.88-17ZM237.43-32.9L237.43-32.9 237.48-2.4Q239.73-2.4 242.03-2.6 244.33-2.8 246.53-3.1 248.73-3.4 250.53-3.75L250.53-3.75Q250.93-3.55 251.13-2.93 251.33-2.3 251.33-1.63 251.33-0.95 251.11-0.48 250.88 0 250.33 0L250.33 0 235.78 0Q234.78 0 234.13-0.6 233.48-1.2 233.48-2.25L233.48-2.25 233.43-28.85Q233.43-30.35 233.31-31.73 233.18-33.1 232.78-34.2L232.78-34.2Q233.08-34.5 233.68-34.8 234.28-35.1 235.13-35.1L235.13-35.1Q236.13-35.1 236.78-34.52 237.43-33.95 237.43-32.9ZM267.78 0.65L267.78 0.65Q261.38 0.65 257.93-3.78 254.48-8.2 254.48-17.3L254.48-17.3Q254.48-26.4 257.93-30.85 261.38-35.3 267.78-35.3L267.78-35.3Q274.23-35.3 277.68-30.85 281.13-26.4 281.13-17.3L281.13-17.3Q281.13-8.2 277.68-3.78 274.23 0.65 267.78 0.65ZM267.78-1.2L267.78-1.2Q272.18-1.2 274.43-5.08 276.68-8.95 276.68-17.3L276.68-17.3Q276.68-25.7 274.43-29.58 272.18-33.45 267.78-33.45L267.78-33.45Q263.48-33.45 261.2-29.58 258.93-25.7 258.93-17.3L258.93-17.3Q258.93-8.95 261.2-5.08 263.48-1.2 267.78-1.2ZM296.08 0L291.28 0Q290.23 0 289.58-0.6 288.93-1.2 288.88-2.25L288.88-2.25 288.88-28.85Q288.88-29.35 288.85-30.35 288.83-31.35 288.68-32.43 288.53-33.5 288.23-34.2L288.23-34.2Q289.03-34.6 290.65-34.95 292.28-35.3 295.38-35.3L295.38-35.3Q301.68-35.3 305-33.33 308.33-31.35 308.33-26.8L308.33-26.8Q308.33-23.75 306.75-21.5 305.18-19.25 302.18-18.35L302.18-18.35Q305.98-17.75 308.03-15.5 310.08-13.25 310.08-9.4L310.08-9.4Q310.08-5.9 308.43-3.83 306.78-1.75 303.65-0.88 300.53 0 296.08 0L296.08 0ZM292.93-33.4L292.93-1.85 296.23-1.85Q299.33-1.85 301.43-2.6 303.53-3.35 304.63-5 305.73-6.65 305.73-9.35L305.73-9.35Q305.73-12.5 304.55-14.2 303.38-15.9 301.25-16.57 299.13-17.25 296.23-17.25L296.23-17.25 292.38-17.25 292.03-19.1 297.13-19.1Q299.13-19.05 300.7-19.88 302.28-20.7 303.18-22.4 304.08-24.1 304.08-26.55L304.08-26.55Q304.08-30.1 302-31.8 299.93-33.5 295.18-33.5L295.18-33.5Q294.43-33.5 293.88-33.48 293.33-33.45 292.93-33.4L292.93-33.4ZM336.07 0L320.17 0Q319.17 0 318.52-0.6 317.87-1.2 317.87-2.25L317.87-2.25 317.82-28.45Q317.82-29.95 317.7-31.23 317.57-32.5 317.17-33.6L317.17-33.6Q317.87-34.25 318.6-34.45 319.32-34.65 320.62-34.65L320.62-34.65 335.72-34.65Q336.17-34.65 336.35-34.18 336.52-33.7 336.42-33.05 336.32-32.4 336.02-31.85 335.72-31.3 335.32-31.1L335.32-31.1Q332.07-31.65 328.72-32 325.37-32.35 321.82-32.4L321.82-32.4 321.87-2.2Q324.27-2.25 326.85-2.48 329.42-2.7 331.85-3 334.27-3.3 336.22-3.6L336.22-3.6Q336.62-3.35 336.85-2.78 337.07-2.2 337.07-1.58 337.07-0.95 336.82-0.48 336.57 0 336.07 0L336.07 0ZM334.12-17L321.07-17 321.07-19.4 334.12-19.4Q334.27-18.8 334.27-18.18 334.27-17.55 334.12-17L334.12-17ZM347.07 0.55L347.07 0.55Q346.02 0.55 345.37-0.05 344.72-0.65 344.67-1.65L344.67-1.65 344.67-28.85Q344.67-29.35 344.65-30.35 344.62-31.35 344.47-32.43 344.32-33.5 344.02-34.2L344.02-34.2Q344.82-34.6 346.52-34.95 348.22-35.3 351.37-35.3L351.37-35.3Q358.42-35.3 361.87-33.1 365.32-30.9 365.32-25.85L365.32-25.85Q365.32-22.95 364.02-20.8 362.72-18.65 360.42-17.4 358.12-16.15 355.12-15.95L355.12-15.95 355.42-16.65Q357.47-16.65 358.8-15.93 360.12-15.2 360.97-14 361.82-12.8 362.47-11.3L362.47-11.3 364.97-5.4Q365.57-3.9 366.12-3.3 366.67-2.7 367.32-2.65L367.32-2.65Q367.57-2.65 368-2.78 368.42-2.9 368.77-3.3L368.77-3.3Q368.97-2.95 369.02-2.63 369.07-2.3 369.07-2L369.07-2Q369.07-1.15 368.55-0.58 368.02 0 367.32 0.28 366.62 0.55 366.07 0.55L366.07 0.55Q364.77 0.55 363.87-0.05 362.97-0.65 362.32-1.78 361.67-2.9 361.02-4.4L361.02-4.4 358.72-10.3Q358.22-11.55 357.62-12.7 357.02-13.85 355.85-14.55 354.67-15.25 352.42-15.25L352.42-15.25 348.22-15.3 347.77-17.15Q348.72-17.1 349.92-17.07 351.12-17.05 352.62-17.05L352.62-17.05Q355.02-17.1 356.9-18.15 358.77-19.2 359.85-21.08 360.92-22.95 360.92-25.5L360.92-25.5Q360.92-29.55 358.72-31.53 356.52-33.5 351.57-33.5L351.57-33.5Q350.57-33.5 349.87-33.48 349.17-33.45 348.72-33.35L348.72-33.35 348.72-5.55Q348.72-5.05 348.77-4.08 348.82-3.1 348.97-2.1 349.12-1.1 349.37-0.35L349.37-0.35Q349.07-0.1 348.5 0.23 347.92 0.55 347.07 0.55Z" opacity="1" transform="matrix(1,0,0,1,0,0)" fill="white" class="slogan-text-1" id="SvgjsPath2666"></path></svg></g></svg></g></svg></g></svg></g><g transform="matrix(1,0,0,1,0,1.8951748487707931)"><svg viewBox="0 0 148.68387200250643 198.0387076795395" height="198.0387076795395" width="148.68387200250643"><g><svg xmlns="http://www.w3.org/2000/svg" xmlns:xlink="http://www.w3.org/1999/xlink" version="1.1" x="0" y="0" viewBox="8 2.0249939 36 47.9500122" enable-background="new 0 0 52 52" xml:space="preserve" height="198.0387076795395" width="148.68387200250643" class="icon-icon-0" data-fill-palette-color="accent" id="SvgjsSvg2665"><g fill="black"><g fill="black"><path d="M35.01 9.935V2.665c0.1 0.08 0.2 0.15 0.29 0.24l7.83 7.83c0.09 0.09 0.16 0.19 0.24 0.29h-7.36C35.46 11.025 35.01 10.535 35.01 9.935z" fill="black"></path></g><g fill="black"><g fill="black"><rect x="24.3048706" y="23.0585022" width="2" height="0.9423828" fill="black"></rect></g><g fill="black"><rect x="19.5021362" y="23.0585022" width="2" height="0.9423828" fill="black"></rect></g><g fill="black"><path d="M36.01 13.025c-1.66 0-3-1.38-3-3.09V2.025H11c-1.65 0-3 1.35-3 3v41.95c0 1.65 1.35 3 3 3h30c1.66 0 3-1.35 3-3V13.025H36.01zM35.5 38.001h-19V27.001h19V38.001zM35.5 25.001h-19v-5h19V25.001z" fill="black"></path></g><g fill="black"><rect x="29.5021362" y="23.0585022" width="2" height="0.9423828" fill="black"></rect></g></g></g></svg></g></svg></g></svg></g><defs><mask></mask></defs><mask><g id="SvgjsG2664"><svg viewBox="0 0 395.52 138.00956639684023" height="138.00956639684023" width="395.52"><g><svg viewBox="0 0 578.4195317608851 201.82905737708109" height="138.00956639684023" width="395.52"><g transform="matrix(1,0,0,1,182.8995317608851,0)"><svg viewBox="0 0 395.52 201.82905737708109" height="201.82905737708109" width="395.52"><g id="SvgjsG2663"><svg viewBox="0 0 395.52 201.82905737708109" height="201.82905737708109" width="395.52" id="SvgjsSvg2662"><g><svg viewBox="0 0 395.52 144.9349351834946" height="144.9349351834946" width="395.52"><g transform="matrix(1,0,0,1,0,0)"><svg width="395.52" viewBox="3.54 -37.55 133.98000000000002 48.99999999999999" height="144.9349351834946" data-palette-color="url(#bb0f08fc-4dc4-4ffd-b016-85643b6d89eb)"><g class="wordmark-text-0" data-fill-palette-color="primary" id="SvgjsG2661"><path d="M32.47-20.7L32.47-14.31 12.43-14.31 12.43-20.7 32.47-20.7ZM35.33-6.35L35.33 0 12.43 0Q11.11 0 9.55-0.46 7.98-0.93 6.65-1.99 5.32-3.05 4.43-4.75 3.54-6.45 3.54-8.91L3.54-8.91 3.54-31.81Q3.54-32.47 3.78-33.06 4.03-33.64 4.46-34.08 4.88-34.52 5.47-34.77 6.05-35.01 6.74-35.01L6.74-35.01 35.33-35.01 35.33-28.66 9.89-28.66 9.89-8.91Q9.89-7.67 10.55-7.01 11.21-6.35 12.48-6.35L12.48-6.35 35.33-6.35ZM69.85-26.39L69.85 2.54Q69.85 4.17 69.43 5.48 69.02 6.79 68.33 7.78 67.65 8.76 66.75 9.46 65.84 10.16 64.85 10.6 63.86 11.04 62.86 11.24 61.86 11.45 60.96 11.45L60.96 11.45 49.51 11.45 49.51 5.1 60.96 5.1Q62.23 5.1 62.86 4.44 63.5 3.78 63.5 2.54L63.5 2.54 63.5-26.39 69.85-26.39ZM60.96-6.35L60.96 0 49.51 0Q48.14 0 46.59-0.46 45.04-0.93 43.7-1.99 42.36-3.05 41.48-4.75 40.6-6.45 40.6-8.91L40.6-8.91 40.6-26.39 46.95-26.39 46.95-8.91Q46.95-7.67 47.6-7.01 48.26-6.35 49.56-6.35L49.56-6.35 60.96-6.35ZM103.14-17.65L103.14-8.74Q103.14-7.42 102.68-5.9 102.22-4.37 101.18-3.06 100.14-1.76 98.47-0.88 96.8 0 94.4 0L94.4 0 82.95 0Q81.64 0 80.11-0.46 78.58-0.93 77.28-1.97 75.97-3 75.09-4.68 74.21-6.35 74.21-8.74L74.21-8.74Q74.21-10.06 74.68-11.6 75.14-13.13 76.18-14.44 77.22-15.75 78.89-16.63 80.56-17.5 82.95-17.5L82.95-17.5 94.4-17.5 94.4-11.45 82.95-11.45Q81.66-11.45 80.95-10.66 80.24-9.86 80.24-8.69L80.24-8.69Q80.24-7.45 81.06-6.75 81.88-6.05 83-6.05L83-6.05 94.4-6.05Q95.7-6.05 96.41-6.84 97.11-7.62 97.11-8.79L97.11-8.79 97.11-17.65Q97.11-18.9 96.35-19.63 95.58-20.36 94.4-20.36L94.4-20.36 80.46-20.36 80.46-26.39 94.4-26.39Q95.72-26.39 97.25-25.93 98.77-25.46 100.08-24.43 101.39-23.39 102.27-21.72 103.14-20.04 103.14-17.65L103.14-17.65ZM137.52-37.55L137.52-8.91Q137.52-7.28 137.1-5.97 136.69-4.66 136-3.67 135.32-2.69 134.42-1.99 133.51-1.29 132.52-0.85 131.54-0.42 130.52-0.21 129.51 0 128.61 0L128.61 0 117.16 0Q115.52 0 114.23-0.42 112.93-0.83 111.94-1.53 110.95-2.22 110.26-3.13 109.56-4.03 109.12-5.02 108.68-6.01 108.48-7.02 108.27-8.03 108.27-8.91L108.27-8.91 108.27-17.5Q108.27-19.95 109.16-21.64 110.05-23.34 111.38-24.4 112.71-25.46 114.27-25.93 115.84-26.39 117.16-26.39L117.16-26.39 128.61-26.39 128.61-20.04 117.2-20.04Q115.93-20.04 115.28-19.4 114.62-18.75 114.62-17.5L114.62-17.5 114.62-8.96Q114.62-7.67 115.26-7.01 115.91-6.35 117.16-6.35L117.16-6.35 128.61-6.35Q129.9-6.35 130.53-7.01 131.17-7.67 131.17-8.91L131.17-8.91 131.17-37.55 137.52-37.55Z" fill="black"></path></g></svg></g></svg></g><g transform="matrix(1,0,0,1,0,179.15059494187327)"><svg viewBox="0 0 232.20979200000002 22.678462435207827" height="22.678462435207827" width="232.20979200000002"><g transform="matrix(1,0,0,1,0,0)"><svg width="232.20979200000002" viewBox="1 -35.3 368.07 35.949999999999996" height="22.678462435207827" data-palette-color="url(#4a8a8329-957c-4fe6-bd52-1f66d5e085d5)"><path d="M42.55-35.2L42.55-35.2Q43.75-35.2 44.35-34.75 44.95-34.3 44.9-33.4L44.9-33.4Q44.9-32.95 44.75-32.33 44.6-31.7 44.45-31.1L44.45-31.1 35.75-0.1Q34.95 0.25 34.25 0.4 33.55 0.55 33 0.55L33 0.55Q32.05 0.55 31.38 0.23 30.7-0.1 30.5-0.75L30.5-0.75 23.3-26.2 15.8-0.1Q15 0.25 14.33 0.4 13.65 0.55 13.15 0.55L13.15 0.55Q12.05 0.55 11.35 0.23 10.65-0.1 10.5-0.75L10.5-0.75 2.2-32.05Q2.05-32.6 1.73-33.27 1.4-33.95 1-34.35L1-34.35Q1.35-34.75 1.95-35.02 2.55-35.3 3.45-35.3L3.45-35.3Q4.5-35.3 5.18-34.9 5.85-34.5 6.05-33.7L6.05-33.7 13.65-2.9 20.95-28.65Q21.15-29.55 21.08-30.13 21-30.7 20.8-31.1L20.8-31.1Q21.4-31.4 22.2-31.58 23-31.75 23.6-31.75L23.6-31.75Q24.3-31.75 24.88-31.53 25.45-31.3 25.6-30.85L25.6-30.85 33.55-2.95 40.45-32.05Q40.55-32.45 40.65-32.88 40.75-33.3 40.75-33.65L40.75-33.65Q40.75-34.05 40.68-34.33 40.6-34.6 40.45-34.85L40.45-34.85Q40.9-35 41.38-35.1 41.85-35.2 42.55-35.2ZM69.15 0L53.25 0Q52.25 0 51.6-0.6 50.95-1.2 50.95-2.25L50.95-2.25 50.9-28.45Q50.9-29.95 50.77-31.23 50.65-32.5 50.25-33.6L50.25-33.6Q50.95-34.25 51.67-34.45 52.4-34.65 53.7-34.65L53.7-34.65 68.8-34.65Q69.25-34.65 69.42-34.18 69.6-33.7 69.5-33.05 69.4-32.4 69.1-31.85 68.8-31.3 68.4-31.1L68.4-31.1Q65.15-31.65 61.8-32 58.45-32.35 54.9-32.4L54.9-32.4 54.95-2.2Q57.35-2.25 59.92-2.48 62.5-2.7 64.92-3 67.35-3.3 69.3-3.6L69.3-3.6Q69.7-3.35 69.92-2.78 70.15-2.2 70.15-1.58 70.15-0.95 69.9-0.48 69.65 0 69.15 0L69.15 0ZM67.2-17L54.15-17 54.15-19.4 67.2-19.4Q67.35-18.8 67.35-18.18 67.35-17.55 67.2-17L67.2-17ZM84.95 0L80.15 0Q79.1 0 78.45-0.6 77.8-1.2 77.75-2.25L77.75-2.25 77.75-28.85Q77.75-29.35 77.72-30.35 77.7-31.35 77.55-32.43 77.4-33.5 77.1-34.2L77.1-34.2Q77.9-34.6 79.52-34.95 81.15-35.3 84.25-35.3L84.25-35.3Q90.55-35.3 93.87-33.33 97.2-31.35 97.2-26.8L97.2-26.8Q97.2-23.75 95.62-21.5 94.05-19.25 91.05-18.35L91.05-18.35Q94.85-17.75 96.9-15.5 98.95-13.25 98.95-9.4L98.95-9.4Q98.95-5.9 97.3-3.83 95.65-1.75 92.52-0.88 89.4 0 84.95 0L84.95 0ZM81.8-33.4L81.8-1.85 85.1-1.85Q88.2-1.85 90.3-2.6 92.4-3.35 93.5-5 94.6-6.65 94.6-9.35L94.6-9.35Q94.6-12.5 93.42-14.2 92.25-15.9 90.12-16.57 88-17.25 85.1-17.25L85.1-17.25 81.25-17.25 80.9-19.1 86-19.1Q88-19.05 89.57-19.88 91.15-20.7 92.05-22.4 92.95-24.1 92.95-26.55L92.95-26.55Q92.95-30.1 90.87-31.8 88.8-33.5 84.05-33.5L84.05-33.5Q83.3-33.5 82.75-33.48 82.2-33.45 81.8-33.4L81.8-33.4ZM128.64 0L120.94 0Q119.89 0 119.27-0.6 118.64-1.2 118.64-2.2L118.64-2.2 118.54-28.85Q118.54-30.35 118.49-32.05 118.44-33.75 118.04-34.85L118.04-34.85Q119.39-35 121.29-35.08 123.19-35.15 125.12-35.18 127.04-35.2 128.44-35.2L128.44-35.2Q135.39-35.2 139.17-30.83 142.94-26.45 142.94-17.55L142.94-17.55Q142.94-8.3 139.19-4.15 135.44 0 128.64 0L128.64 0ZM122.54-33.3L122.59-1.85 128.44-1.85Q131.74-1.85 133.99-3.38 136.24-4.9 137.39-8.3 138.54-11.7 138.54-17.3L138.54-17.3Q138.54-25.65 135.97-29.48 133.39-33.3 128.44-33.3L128.44-33.3 122.54-33.3ZM168.99 0L153.09 0Q152.09 0 151.44-0.6 150.79-1.2 150.79-2.25L150.79-2.25 150.74-28.45Q150.74-29.95 150.61-31.23 150.49-32.5 150.09-33.6L150.09-33.6Q150.79-34.25 151.51-34.45 152.24-34.65 153.54-34.65L153.54-34.65 168.64-34.65Q169.09-34.65 169.26-34.18 169.44-33.7 169.34-33.05 169.24-32.4 168.94-31.85 168.64-31.3 168.24-31.1L168.24-31.1Q164.99-31.65 161.64-32 158.29-32.35 154.74-32.4L154.74-32.4 154.79-2.2Q157.19-2.25 159.76-2.48 162.34-2.7 164.76-3 167.19-3.3 169.14-3.6L169.14-3.6Q169.54-3.35 169.76-2.78 169.99-2.2 169.99-1.58 169.99-0.95 169.74-0.48 169.49 0 168.99 0L168.99 0ZM167.04-17L153.99-17 153.99-19.4 167.04-19.4Q167.19-18.8 167.19-18.18 167.19-17.55 167.04-17L167.04-17ZM187.09 0.55L187.09 0.55Q184.84 0.55 184.39-0.75L184.39-0.75 174.44-32.05Q174.29-32.6 173.99-33.27 173.69-33.95 173.24-34.35L173.24-34.35Q173.64-34.75 174.21-35.02 174.79-35.3 175.74-35.3L175.74-35.3Q177.89-35.3 178.29-33.7L178.29-33.7 188.19-0.3 186.89-0.3 196.19-32.15Q196.29-32.5 196.39-32.95 196.49-33.4 196.49-33.75L196.49-33.75Q196.49-34.1 196.41-34.4 196.34-34.7 196.19-34.9L196.19-34.9Q196.64-35.1 197.11-35.2 197.59-35.3 198.29-35.3L198.29-35.3Q199.49-35.3 200.09-34.85 200.69-34.4 200.64-33.5L200.64-33.5Q200.64-33.05 200.51-32.43 200.39-31.8 200.19-31.2L200.19-31.2 189.79-0.1Q188.99 0.25 188.29 0.4 187.59 0.55 187.09 0.55ZM224.83 0L208.93 0Q207.93 0 207.28-0.6 206.63-1.2 206.63-2.25L206.63-2.25 206.58-28.45Q206.58-29.95 206.46-31.23 206.33-32.5 205.93-33.6L205.93-33.6Q206.63-34.25 207.36-34.45 208.08-34.65 209.38-34.65L209.38-34.65 224.48-34.65Q224.93-34.65 225.11-34.18 225.28-33.7 225.18-33.05 225.08-32.4 224.78-31.85 224.48-31.3 224.08-31.1L224.08-31.1Q220.83-31.65 217.48-32 214.13-32.35 210.58-32.4L210.58-32.4 210.63-2.2Q213.03-2.25 215.61-2.48 218.18-2.7 220.61-3 223.03-3.3 224.98-3.6L224.98-3.6Q225.38-3.35 225.61-2.78 225.83-2.2 225.83-1.58 225.83-0.95 225.58-0.48 225.33 0 224.83 0L224.83 0ZM222.88-17L209.83-17 209.83-19.4 222.88-19.4Q223.03-18.8 223.03-18.18 223.03-17.55 222.88-17L222.88-17ZM237.43-32.9L237.43-32.9 237.48-2.4Q239.73-2.4 242.03-2.6 244.33-2.8 246.53-3.1 248.73-3.4 250.53-3.75L250.53-3.75Q250.93-3.55 251.13-2.93 251.33-2.3 251.33-1.63 251.33-0.95 251.11-0.48 250.88 0 250.33 0L250.33 0 235.78 0Q234.78 0 234.13-0.6 233.48-1.2 233.48-2.25L233.48-2.25 233.43-28.85Q233.43-30.35 233.31-31.73 233.18-33.1 232.78-34.2L232.78-34.2Q233.08-34.5 233.68-34.8 234.28-35.1 235.13-35.1L235.13-35.1Q236.13-35.1 236.78-34.52 237.43-33.95 237.43-32.9ZM267.78 0.65L267.78 0.65Q261.38 0.65 257.93-3.78 254.48-8.2 254.48-17.3L254.48-17.3Q254.48-26.4 257.93-30.85 261.38-35.3 267.78-35.3L267.78-35.3Q274.23-35.3 277.68-30.85 281.13-26.4 281.13-17.3L281.13-17.3Q281.13-8.2 277.68-3.78 274.23 0.65 267.78 0.65ZM267.78-1.2L267.78-1.2Q272.18-1.2 274.43-5.08 276.68-8.95 276.68-17.3L276.68-17.3Q276.68-25.7 274.43-29.58 272.18-33.45 267.78-33.45L267.78-33.45Q263.48-33.45 261.2-29.58 258.93-25.7 258.93-17.3L258.93-17.3Q258.93-8.95 261.2-5.08 263.48-1.2 267.78-1.2ZM296.08 0L291.28 0Q290.23 0 289.58-0.6 288.93-1.2 288.88-2.25L288.88-2.25 288.88-28.85Q288.88-29.35 288.85-30.35 288.83-31.35 288.68-32.43 288.53-33.5 288.23-34.2L288.23-34.2Q289.03-34.6 290.65-34.95 292.28-35.3 295.38-35.3L295.38-35.3Q301.68-35.3 305-33.33 308.33-31.35 308.33-26.8L308.33-26.8Q308.33-23.75 306.75-21.5 305.18-19.25 302.18-18.35L302.18-18.35Q305.98-17.75 308.03-15.5 310.08-13.25 310.08-9.4L310.08-9.4Q310.08-5.9 308.43-3.83 306.78-1.75 303.65-0.88 300.53 0 296.08 0L296.08 0ZM292.93-33.4L292.93-1.85 296.23-1.85Q299.33-1.85 301.43-2.6 303.53-3.35 304.63-5 305.73-6.65 305.73-9.35L305.73-9.35Q305.73-12.5 304.55-14.2 303.38-15.9 301.25-16.57 299.13-17.25 296.23-17.25L296.23-17.25 292.38-17.25 292.03-19.1 297.13-19.1Q299.13-19.05 300.7-19.88 302.28-20.7 303.18-22.4 304.08-24.1 304.08-26.55L304.08-26.55Q304.08-30.1 302-31.8 299.93-33.5 295.18-33.5L295.18-33.5Q294.43-33.5 293.88-33.48 293.33-33.45 292.93-33.4L292.93-33.4ZM336.07 0L320.17 0Q319.17 0 318.52-0.6 317.87-1.2 317.87-2.25L317.87-2.25 317.82-28.45Q317.82-29.95 317.7-31.23 317.57-32.5 317.17-33.6L317.17-33.6Q317.87-34.25 318.6-34.45 319.32-34.65 320.62-34.65L320.62-34.65 335.72-34.65Q336.17-34.65 336.35-34.18 336.52-33.7 336.42-33.05 336.32-32.4 336.02-31.85 335.72-31.3 335.32-31.1L335.32-31.1Q332.07-31.65 328.72-32 325.37-32.35 321.82-32.4L321.82-32.4 321.87-2.2Q324.27-2.25 326.85-2.48 329.42-2.7 331.85-3 334.27-3.3 336.22-3.6L336.22-3.6Q336.62-3.35 336.85-2.78 337.07-2.2 337.07-1.58 337.07-0.95 336.82-0.48 336.57 0 336.07 0L336.07 0ZM334.12-17L321.07-17 321.07-19.4 334.12-19.4Q334.27-18.8 334.27-18.18 334.27-17.55 334.12-17L334.12-17ZM347.07 0.55L347.07 0.55Q346.02 0.55 345.37-0.05 344.72-0.65 344.67-1.65L344.67-1.65 344.67-28.85Q344.67-29.35 344.65-30.35 344.62-31.35 344.47-32.43 344.32-33.5 344.02-34.2L344.02-34.2Q344.82-34.6 346.52-34.95 348.22-35.3 351.37-35.3L351.37-35.3Q358.42-35.3 361.87-33.1 365.32-30.9 365.32-25.85L365.32-25.85Q365.32-22.95 364.02-20.8 362.72-18.65 360.42-17.4 358.12-16.15 355.12-15.95L355.12-15.95 355.42-16.65Q357.47-16.65 358.8-15.93 360.12-15.2 360.97-14 361.82-12.8 362.47-11.3L362.47-11.3 364.97-5.4Q365.57-3.9 366.12-3.3 366.67-2.7 367.32-2.65L367.32-2.65Q367.57-2.65 368-2.78 368.42-2.9 368.77-3.3L368.77-3.3Q368.97-2.95 369.02-2.63 369.07-2.3 369.07-2L369.07-2Q369.07-1.15 368.55-0.58 368.02 0 367.32 0.28 366.62 0.55 366.07 0.55L366.07 0.55Q364.77 0.55 363.87-0.05 362.97-0.65 362.32-1.78 361.67-2.9 361.02-4.4L361.02-4.4 358.72-10.3Q358.22-11.55 357.62-12.7 357.02-13.85 355.85-14.55 354.67-15.25 352.42-15.25L352.42-15.25 348.22-15.3 347.77-17.15Q348.72-17.1 349.92-17.07 351.12-17.05 352.62-17.05L352.62-17.05Q355.02-17.1 356.9-18.15 358.77-19.2 359.85-21.08 360.92-22.95 360.92-25.5L360.92-25.5Q360.92-29.55 358.72-31.53 356.52-33.5 351.57-33.5L351.57-33.5Q350.57-33.5 349.87-33.48 349.17-33.45 348.72-33.35L348.72-33.35 348.72-5.55Q348.72-5.05 348.77-4.08 348.82-3.1 348.97-2.1 349.12-1.1 349.37-0.35L349.37-0.35Q349.07-0.1 348.5 0.23 347.92 0.55 347.07 0.55Z" opacity="1" transform="matrix(1,0,0,1,0,0)" fill="black" class="slogan-text-1" id="SvgjsPath2660"></path></svg></g></svg></g></svg></g></svg></g><g transform="matrix(1,0,0,1,0,1.8951748487707931)"><svg viewBox="0 0 148.68387200250643 198.0387076795395" height="198.0387076795395" width="148.68387200250643"><g><svg xmlns="http://www.w3.org/2000/svg" xmlns:xlink="http://www.w3.org/1999/xlink" version="1.1" x="0" y="0" viewBox="8 2.0249939 36 47.9500122" enable-background="new 0 0 52 52" xml:space="preserve" height="198.0387076795395" width="148.68387200250643" class="icon-icon-0" data-fill-palette-color="accent" id="SvgjsSvg2659"><g fill="black"><g fill="black"><path d="M35.01 9.935V2.665c0.1 0.08 0.2 0.15 0.29 0.24l7.83 7.83c0.09 0.09 0.16 0.19 0.24 0.29h-7.36C35.46 11.025 35.01 10.535 35.01 9.935z" fill="black"></path></g><g fill="black"><g fill="black"><rect x="24.3048706" y="23.0585022" width="2" height="0.9423828" fill="black"></rect></g><g fill="black"><rect x="19.5021362" y="23.0585022" width="2" height="0.9423828" fill="black"></rect></g><g fill="black"><path d="M36.01 13.025c-1.66 0-3-1.38-3-3.09V2.025H11c-1.65 0-3 1.35-3 3v41.95c0 1.65 1.35 3 3 3h30c1.66 0 3-1.35 3-3V13.025H36.01zM35.5 38.001h-19V27.001h19V38.001zM35.5 25.001h-19v-5h19V25.001z" fill="black"></path></g><g fill="black"><rect x="29.5021362" y="23.0585022" width="2" height="0.9423828" fill="black"></rect></g></g></g></svg></g></svg></g></svg></g><defs><mask></mask></defs></svg><rect width="395.52" height="138.00956639684023" fill="black" stroke="none" visibility="hidden"></rect></g></mask></svg><rect width="395.52" height="138.00956639684023" fill="black" stroke="none" visibility="hidden"></rect></g></mask><linearGradient x1="0.054" x2="0.941" y1="0.5" y2="0.5" id="4a8a8329-957c-4fe6-bd52-1f66d5e085d5"><stop stop-color="#0f3054" offset="0"></stop><stop stop-color="#3b8dcb" offset="0.498"></stop><stop stop-color="#0f3054" offset="1"></stop></linearGradient><rect width="395.52" height="138.00956639684023" fill="url(#4a8a8329-957c-4fe6-bd52-1f66d5e085d5)" mask="url(#2f7ecd8b-1280-4871-b330-bde52556ea00)" data-fill-palette-color="secondary"></rect><mask id="9f202ebe-3d72-45d4-b900-7dc2553c731a"><g id="SvgjsG2693"><svg viewBox="0 0 395.52 138.00956639684023" height="138.00956639684023" width="395.52"><g><svg viewBox="0 0 578.4195317608851 201.82905737708109" height="138.00956639684023" width="395.52"><g transform="matrix(1,0,0,1,182.8995317608851,0)"><svg viewBox="0 0 395.52 201.82905737708109" height="201.82905737708109" width="395.52"><g id="SvgjsG2692"><svg viewBox="0 0 395.52 201.82905737708109" height="201.82905737708109" width="395.52" id="SvgjsSvg2691"><g><svg viewBox="0 0 395.52 144.9349351834946" height="144.9349351834946" width="395.52"><g transform="matrix(1,0,0,1,0,0)"><svg width="395.52" viewBox="3.54 -37.55 133.98000000000002 48.99999999999999" height="144.9349351834946" data-palette-color="url(#bb0f08fc-4dc4-4ffd-b016-85643b6d89eb)"><g class="wordmark-text-0" data-fill-palette-color="primary" id="SvgjsG2690"></g></svg></g></svg></g><g transform="matrix(1,0,0,1,0,179.15059494187327)"><svg viewBox="0 0 232.20979200000002 22.678462435207827" height="22.678462435207827" width="232.20979200000002"><g transform="matrix(1,0,0,1,0,0)"><svg width="232.20979200000002" viewBox="1 -35.3 368.07 35.949999999999996" height="22.678462435207827" data-palette-color="url(#4a8a8329-957c-4fe6-bd52-1f66d5e085d5)"></svg></g></svg></g></svg></g></svg></g><g transform="matrix(1,0,0,1,0,1.8951748487707931)"><svg viewBox="0 0 148.68387200250643 198.0387076795395" height="198.0387076795395" width="148.68387200250643"><g><svg xmlns="http://www.w3.org/2000/svg" xmlns:xlink="http://www.w3.org/1999/xlink" version="1.1" x="0" y="0" viewBox="8 2.0249939 36 47.9500122" enable-background="new 0 0 52 52" xml:space="preserve" height="198.0387076795395" width="148.68387200250643" class="icon-icon-0" data-fill-palette-color="accent" id="SvgjsSvg2689"><g fill="white"><g fill="white"><path d="M35.01 9.935V2.665c0.1 0.08 0.2 0.15 0.29 0.24l7.83 7.83c0.09 0.09 0.16 0.19 0.24 0.29h-7.36C35.46 11.025 35.01 10.535 35.01 9.935z" fill="white"></path></g><g fill="white"><g fill="white"><rect x="24.3048706" y="23.0585022" width="2" height="0.9423828" fill="white"></rect></g><g fill="white"><rect x="19.5021362" y="23.0585022" width="2" height="0.9423828" fill="white"></rect></g><g fill="white"><path d="M36.01 13.025c-1.66 0-3-1.38-3-3.09V2.025H11c-1.65 0-3 1.35-3 3v41.95c0 1.65 1.35 3 3 3h30c1.66 0 3-1.35 3-3V13.025H36.01zM35.5 38.001h-19V27.001h19V38.001zM35.5 25.001h-19v-5h19V25.001z" fill="white"></path></g><g fill="white"><rect x="29.5021362" y="23.0585022" width="2" height="0.9423828" fill="white"></rect></g></g></g></svg></g></svg></g></svg></g><defs><mask></mask></defs><mask><g id="SvgjsG2688"><svg viewBox="0 0 395.52 138.00956639684023" height="138.00956639684023" width="395.52"><g><svg viewBox="0 0 578.4195317608851 201.82905737708109" height="138.00956639684023" width="395.52"><g transform="matrix(1,0,0,1,182.8995317608851,0)"><svg viewBox="0 0 395.52 201.82905737708109" height="201.82905737708109" width="395.52"><g id="SvgjsG2687"><svg viewBox="0 0 395.52 201.82905737708109" height="201.82905737708109" width="395.52" id="SvgjsSvg2686"><g><svg viewBox="0 0 395.52 144.9349351834946" height="144.9349351834946" width="395.52"><g transform="matrix(1,0,0,1,0,0)"><svg width="395.52" viewBox="3.54 -37.55 133.98000000000002 48.99999999999999" height="144.9349351834946" data-palette-color="url(#bb0f08fc-4dc4-4ffd-b016-85643b6d89eb)"><g class="wordmark-text-0" data-fill-palette-color="primary" id="SvgjsG2685"><path d="M32.47-20.7L32.47-14.31 12.43-14.31 12.43-20.7 32.47-20.7ZM35.33-6.35L35.33 0 12.43 0Q11.11 0 9.55-0.46 7.98-0.93 6.65-1.99 5.32-3.05 4.43-4.75 3.54-6.45 3.54-8.91L3.54-8.91 3.54-31.81Q3.54-32.47 3.78-33.06 4.03-33.64 4.46-34.08 4.88-34.52 5.47-34.77 6.05-35.01 6.74-35.01L6.74-35.01 35.33-35.01 35.33-28.66 9.89-28.66 9.89-8.91Q9.89-7.67 10.55-7.01 11.21-6.35 12.48-6.35L12.48-6.35 35.33-6.35ZM69.85-26.39L69.85 2.54Q69.85 4.17 69.43 5.48 69.02 6.79 68.33 7.78 67.65 8.76 66.75 9.46 65.84 10.16 64.85 10.6 63.86 11.04 62.86 11.24 61.86 11.45 60.96 11.45L60.96 11.45 49.51 11.45 49.51 5.1 60.96 5.1Q62.23 5.1 62.86 4.44 63.5 3.78 63.5 2.54L63.5 2.54 63.5-26.39 69.85-26.39ZM60.96-6.35L60.96 0 49.51 0Q48.14 0 46.59-0.46 45.04-0.93 43.7-1.99 42.36-3.05 41.48-4.75 40.6-6.45 40.6-8.91L40.6-8.91 40.6-26.39 46.95-26.39 46.95-8.91Q46.95-7.67 47.6-7.01 48.26-6.35 49.56-6.35L49.56-6.35 60.96-6.35ZM103.14-17.65L103.14-8.74Q103.14-7.42 102.68-5.9 102.22-4.37 101.18-3.06 100.14-1.76 98.47-0.88 96.8 0 94.4 0L94.4 0 82.95 0Q81.64 0 80.11-0.46 78.58-0.93 77.28-1.97 75.97-3 75.09-4.68 74.21-6.35 74.21-8.74L74.21-8.74Q74.21-10.06 74.68-11.6 75.14-13.13 76.18-14.44 77.22-15.75 78.89-16.63 80.56-17.5 82.95-17.5L82.95-17.5 94.4-17.5 94.4-11.45 82.95-11.45Q81.66-11.45 80.95-10.66 80.24-9.86 80.24-8.69L80.24-8.69Q80.24-7.45 81.06-6.75 81.88-6.05 83-6.05L83-6.05 94.4-6.05Q95.7-6.05 96.41-6.84 97.11-7.62 97.11-8.79L97.11-8.79 97.11-17.65Q97.11-18.9 96.35-19.63 95.58-20.36 94.4-20.36L94.4-20.36 80.46-20.36 80.46-26.39 94.4-26.39Q95.72-26.39 97.25-25.93 98.77-25.46 100.08-24.43 101.39-23.39 102.27-21.72 103.14-20.04 103.14-17.65L103.14-17.65ZM137.52-37.55L137.52-8.91Q137.52-7.28 137.1-5.97 136.69-4.66 136-3.67 135.32-2.69 134.42-1.99 133.51-1.29 132.52-0.85 131.54-0.42 130.52-0.21 129.51 0 128.61 0L128.61 0 117.16 0Q115.52 0 114.23-0.42 112.93-0.83 111.94-1.53 110.95-2.22 110.26-3.13 109.56-4.03 109.12-5.02 108.68-6.01 108.48-7.02 108.27-8.03 108.27-8.91L108.27-8.91 108.27-17.5Q108.27-19.95 109.16-21.64 110.05-23.34 111.38-24.4 112.71-25.46 114.27-25.93 115.84-26.39 117.16-26.39L117.16-26.39 128.61-26.39 128.61-20.04 117.2-20.04Q115.93-20.04 115.28-19.4 114.62-18.75 114.62-17.5L114.62-17.5 114.62-8.96Q114.62-7.67 115.26-7.01 115.91-6.35 117.16-6.35L117.16-6.35 128.61-6.35Q129.9-6.35 130.53-7.01 131.17-7.67 131.17-8.91L131.17-8.91 131.17-37.55 137.52-37.55Z" fill="black"></path></g></svg></g></svg></g><g transform="matrix(1,0,0,1,0,179.15059494187327)"><svg viewBox="0 0 232.20979200000002 22.678462435207827" height="22.678462435207827" width="232.20979200000002"><g transform="matrix(1,0,0,1,0,0)"><svg width="232.20979200000002" viewBox="1 -35.3 368.07 35.949999999999996" height="22.678462435207827" data-palette-color="url(#4a8a8329-957c-4fe6-bd52-1f66d5e085d5)"><path d="M42.55-35.2L42.55-35.2Q43.75-35.2 44.35-34.75 44.95-34.3 44.9-33.4L44.9-33.4Q44.9-32.95 44.75-32.33 44.6-31.7 44.45-31.1L44.45-31.1 35.75-0.1Q34.95 0.25 34.25 0.4 33.55 0.55 33 0.55L33 0.55Q32.05 0.55 31.38 0.23 30.7-0.1 30.5-0.75L30.5-0.75 23.3-26.2 15.8-0.1Q15 0.25 14.33 0.4 13.65 0.55 13.15 0.55L13.15 0.55Q12.05 0.55 11.35 0.23 10.65-0.1 10.5-0.75L10.5-0.75 2.2-32.05Q2.05-32.6 1.73-33.27 1.4-33.95 1-34.35L1-34.35Q1.35-34.75 1.95-35.02 2.55-35.3 3.45-35.3L3.45-35.3Q4.5-35.3 5.18-34.9 5.85-34.5 6.05-33.7L6.05-33.7 13.65-2.9 20.95-28.65Q21.15-29.55 21.08-30.13 21-30.7 20.8-31.1L20.8-31.1Q21.4-31.4 22.2-31.58 23-31.75 23.6-31.75L23.6-31.75Q24.3-31.75 24.88-31.53 25.45-31.3 25.6-30.85L25.6-30.85 33.55-2.95 40.45-32.05Q40.55-32.45 40.65-32.88 40.75-33.3 40.75-33.65L40.75-33.65Q40.75-34.05 40.68-34.33 40.6-34.6 40.45-34.85L40.45-34.85Q40.9-35 41.38-35.1 41.85-35.2 42.55-35.2ZM69.15 0L53.25 0Q52.25 0 51.6-0.6 50.95-1.2 50.95-2.25L50.95-2.25 50.9-28.45Q50.9-29.95 50.77-31.23 50.65-32.5 50.25-33.6L50.25-33.6Q50.95-34.25 51.67-34.45 52.4-34.65 53.7-34.65L53.7-34.65 68.8-34.65Q69.25-34.65 69.42-34.18 69.6-33.7 69.5-33.05 69.4-32.4 69.1-31.85 68.8-31.3 68.4-31.1L68.4-31.1Q65.15-31.65 61.8-32 58.45-32.35 54.9-32.4L54.9-32.4 54.95-2.2Q57.35-2.25 59.92-2.48 62.5-2.7 64.92-3 67.35-3.3 69.3-3.6L69.3-3.6Q69.7-3.35 69.92-2.78 70.15-2.2 70.15-1.58 70.15-0.95 69.9-0.48 69.65 0 69.15 0L69.15 0ZM67.2-17L54.15-17 54.15-19.4 67.2-19.4Q67.35-18.8 67.35-18.18 67.35-17.55 67.2-17L67.2-17ZM84.95 0L80.15 0Q79.1 0 78.45-0.6 77.8-1.2 77.75-2.25L77.75-2.25 77.75-28.85Q77.75-29.35 77.72-30.35 77.7-31.35 77.55-32.43 77.4-33.5 77.1-34.2L77.1-34.2Q77.9-34.6 79.52-34.95 81.15-35.3 84.25-35.3L84.25-35.3Q90.55-35.3 93.87-33.33 97.2-31.35 97.2-26.8L97.2-26.8Q97.2-23.75 95.62-21.5 94.05-19.25 91.05-18.35L91.05-18.35Q94.85-17.75 96.9-15.5 98.95-13.25 98.95-9.4L98.95-9.4Q98.95-5.9 97.3-3.83 95.65-1.75 92.52-0.88 89.4 0 84.95 0L84.95 0ZM81.8-33.4L81.8-1.85 85.1-1.85Q88.2-1.85 90.3-2.6 92.4-3.35 93.5-5 94.6-6.65 94.6-9.35L94.6-9.35Q94.6-12.5 93.42-14.2 92.25-15.9 90.12-16.57 88-17.25 85.1-17.25L85.1-17.25 81.25-17.25 80.9-19.1 86-19.1Q88-19.05 89.57-19.88 91.15-20.7 92.05-22.4 92.95-24.1 92.95-26.55L92.95-26.55Q92.95-30.1 90.87-31.8 88.8-33.5 84.05-33.5L84.05-33.5Q83.3-33.5 82.75-33.48 82.2-33.45 81.8-33.4L81.8-33.4ZM128.64 0L120.94 0Q119.89 0 119.27-0.6 118.64-1.2 118.64-2.2L118.64-2.2 118.54-28.85Q118.54-30.35 118.49-32.05 118.44-33.75 118.04-34.85L118.04-34.85Q119.39-35 121.29-35.08 123.19-35.15 125.12-35.18 127.04-35.2 128.44-35.2L128.44-35.2Q135.39-35.2 139.17-30.83 142.94-26.45 142.94-17.55L142.94-17.55Q142.94-8.3 139.19-4.15 135.44 0 128.64 0L128.64 0ZM122.54-33.3L122.59-1.85 128.44-1.85Q131.74-1.85 133.99-3.38 136.24-4.9 137.39-8.3 138.54-11.7 138.54-17.3L138.54-17.3Q138.54-25.65 135.97-29.48 133.39-33.3 128.44-33.3L128.44-33.3 122.54-33.3ZM168.99 0L153.09 0Q152.09 0 151.44-0.6 150.79-1.2 150.79-2.25L150.79-2.25 150.74-28.45Q150.74-29.95 150.61-31.23 150.49-32.5 150.09-33.6L150.09-33.6Q150.79-34.25 151.51-34.45 152.24-34.65 153.54-34.65L153.54-34.65 168.64-34.65Q169.09-34.65 169.26-34.18 169.44-33.7 169.34-33.05 169.24-32.4 168.94-31.85 168.64-31.3 168.24-31.1L168.24-31.1Q164.99-31.65 161.64-32 158.29-32.35 154.74-32.4L154.74-32.4 154.79-2.2Q157.19-2.25 159.76-2.48 162.34-2.7 164.76-3 167.19-3.3 169.14-3.6L169.14-3.6Q169.54-3.35 169.76-2.78 169.99-2.2 169.99-1.58 169.99-0.95 169.74-0.48 169.49 0 168.99 0L168.99 0ZM167.04-17L153.99-17 153.99-19.4 167.04-19.4Q167.19-18.8 167.19-18.18 167.19-17.55 167.04-17L167.04-17ZM187.09 0.55L187.09 0.55Q184.84 0.55 184.39-0.75L184.39-0.75 174.44-32.05Q174.29-32.6 173.99-33.27 173.69-33.95 173.24-34.35L173.24-34.35Q173.64-34.75 174.21-35.02 174.79-35.3 175.74-35.3L175.74-35.3Q177.89-35.3 178.29-33.7L178.29-33.7 188.19-0.3 186.89-0.3 196.19-32.15Q196.29-32.5 196.39-32.95 196.49-33.4 196.49-33.75L196.49-33.75Q196.49-34.1 196.41-34.4 196.34-34.7 196.19-34.9L196.19-34.9Q196.64-35.1 197.11-35.2 197.59-35.3 198.29-35.3L198.29-35.3Q199.49-35.3 200.09-34.85 200.69-34.4 200.64-33.5L200.64-33.5Q200.64-33.05 200.51-32.43 200.39-31.8 200.19-31.2L200.19-31.2 189.79-0.1Q188.99 0.25 188.29 0.4 187.59 0.55 187.09 0.55ZM224.83 0L208.93 0Q207.93 0 207.28-0.6 206.63-1.2 206.63-2.25L206.63-2.25 206.58-28.45Q206.58-29.95 206.46-31.23 206.33-32.5 205.93-33.6L205.93-33.6Q206.63-34.25 207.36-34.45 208.08-34.65 209.38-34.65L209.38-34.65 224.48-34.65Q224.93-34.65 225.11-34.18 225.28-33.7 225.18-33.05 225.08-32.4 224.78-31.85 224.48-31.3 224.08-31.1L224.08-31.1Q220.83-31.65 217.48-32 214.13-32.35 210.58-32.4L210.58-32.4 210.63-2.2Q213.03-2.25 215.61-2.48 218.18-2.7 220.61-3 223.03-3.3 224.98-3.6L224.98-3.6Q225.38-3.35 225.61-2.78 225.83-2.2 225.83-1.58 225.83-0.95 225.58-0.48 225.33 0 224.83 0L224.83 0ZM222.88-17L209.83-17 209.83-19.4 222.88-19.4Q223.03-18.8 223.03-18.18 223.03-17.55 222.88-17L222.88-17ZM237.43-32.9L237.43-32.9 237.48-2.4Q239.73-2.4 242.03-2.6 244.33-2.8 246.53-3.1 248.73-3.4 250.53-3.75L250.53-3.75Q250.93-3.55 251.13-2.93 251.33-2.3 251.33-1.63 251.33-0.95 251.11-0.48 250.88 0 250.33 0L250.33 0 235.78 0Q234.78 0 234.13-0.6 233.48-1.2 233.48-2.25L233.48-2.25 233.43-28.85Q233.43-30.35 233.31-31.73 233.18-33.1 232.78-34.2L232.78-34.2Q233.08-34.5 233.68-34.8 234.28-35.1 235.13-35.1L235.13-35.1Q236.13-35.1 236.78-34.52 237.43-33.95 237.43-32.9ZM267.78 0.65L267.78 0.65Q261.38 0.65 257.93-3.78 254.48-8.2 254.48-17.3L254.48-17.3Q254.48-26.4 257.93-30.85 261.38-35.3 267.78-35.3L267.78-35.3Q274.23-35.3 277.68-30.85 281.13-26.4 281.13-17.3L281.13-17.3Q281.13-8.2 277.68-3.78 274.23 0.65 267.78 0.65ZM267.78-1.2L267.78-1.2Q272.18-1.2 274.43-5.08 276.68-8.95 276.68-17.3L276.68-17.3Q276.68-25.7 274.43-29.58 272.18-33.45 267.78-33.45L267.78-33.45Q263.48-33.45 261.2-29.58 258.93-25.7 258.93-17.3L258.93-17.3Q258.93-8.95 261.2-5.08 263.48-1.2 267.78-1.2ZM296.08 0L291.28 0Q290.23 0 289.58-0.6 288.93-1.2 288.88-2.25L288.88-2.25 288.88-28.85Q288.88-29.35 288.85-30.35 288.83-31.35 288.68-32.43 288.53-33.5 288.23-34.2L288.23-34.2Q289.03-34.6 290.65-34.95 292.28-35.3 295.38-35.3L295.38-35.3Q301.68-35.3 305-33.33 308.33-31.35 308.33-26.8L308.33-26.8Q308.33-23.75 306.75-21.5 305.18-19.25 302.18-18.35L302.18-18.35Q305.98-17.75 308.03-15.5 310.08-13.25 310.08-9.4L310.08-9.4Q310.08-5.9 308.43-3.83 306.78-1.75 303.65-0.88 300.53 0 296.08 0L296.08 0ZM292.93-33.4L292.93-1.85 296.23-1.85Q299.33-1.85 301.43-2.6 303.53-3.35 304.63-5 305.73-6.65 305.73-9.35L305.73-9.35Q305.73-12.5 304.55-14.2 303.38-15.9 301.25-16.57 299.13-17.25 296.23-17.25L296.23-17.25 292.38-17.25 292.03-19.1 297.13-19.1Q299.13-19.05 300.7-19.88 302.28-20.7 303.18-22.4 304.08-24.1 304.08-26.55L304.08-26.55Q304.08-30.1 302-31.8 299.93-33.5 295.18-33.5L295.18-33.5Q294.43-33.5 293.88-33.48 293.33-33.45 292.93-33.4L292.93-33.4ZM336.07 0L320.17 0Q319.17 0 318.52-0.6 317.87-1.2 317.87-2.25L317.87-2.25 317.82-28.45Q317.82-29.95 317.7-31.23 317.57-32.5 317.17-33.6L317.17-33.6Q317.87-34.25 318.6-34.45 319.32-34.65 320.62-34.65L320.62-34.65 335.72-34.65Q336.17-34.65 336.35-34.18 336.52-33.7 336.42-33.05 336.32-32.4 336.02-31.85 335.72-31.3 335.32-31.1L335.32-31.1Q332.07-31.65 328.72-32 325.37-32.35 321.82-32.4L321.82-32.4 321.87-2.2Q324.27-2.25 326.85-2.48 329.42-2.7 331.85-3 334.27-3.3 336.22-3.6L336.22-3.6Q336.62-3.35 336.85-2.78 337.07-2.2 337.07-1.58 337.07-0.95 336.82-0.48 336.57 0 336.07 0L336.07 0ZM334.12-17L321.07-17 321.07-19.4 334.12-19.4Q334.27-18.8 334.27-18.18 334.27-17.55 334.12-17L334.12-17ZM347.07 0.55L347.07 0.55Q346.02 0.55 345.37-0.05 344.72-0.65 344.67-1.65L344.67-1.65 344.67-28.85Q344.67-29.35 344.65-30.35 344.62-31.35 344.47-32.43 344.32-33.5 344.02-34.2L344.02-34.2Q344.82-34.6 346.52-34.95 348.22-35.3 351.37-35.3L351.37-35.3Q358.42-35.3 361.87-33.1 365.32-30.9 365.32-25.85L365.32-25.85Q365.32-22.95 364.02-20.8 362.72-18.65 360.42-17.4 358.12-16.15 355.12-15.95L355.12-15.95 355.42-16.65Q357.47-16.65 358.8-15.93 360.12-15.2 360.97-14 361.82-12.8 362.47-11.3L362.47-11.3 364.97-5.4Q365.57-3.9 366.12-3.3 366.67-2.7 367.32-2.65L367.32-2.65Q367.57-2.65 368-2.78 368.42-2.9 368.77-3.3L368.77-3.3Q368.97-2.95 369.02-2.63 369.07-2.3 369.07-2L369.07-2Q369.07-1.15 368.55-0.58 368.02 0 367.32 0.28 366.62 0.55 366.07 0.55L366.07 0.55Q364.77 0.55 363.87-0.05 362.97-0.65 362.32-1.78 361.67-2.9 361.02-4.4L361.02-4.4 358.72-10.3Q358.22-11.55 357.62-12.7 357.02-13.85 355.85-14.55 354.67-15.25 352.42-15.25L352.42-15.25 348.22-15.3 347.77-17.15Q348.72-17.1 349.92-17.07 351.12-17.05 352.62-17.05L352.62-17.05Q355.02-17.1 356.9-18.15 358.77-19.2 359.85-21.08 360.92-22.95 360.92-25.5L360.92-25.5Q360.92-29.55 358.72-31.53 356.52-33.5 351.57-33.5L351.57-33.5Q350.57-33.5 349.87-33.48 349.17-33.45 348.72-33.35L348.72-33.35 348.72-5.55Q348.72-5.05 348.77-4.08 348.82-3.1 348.97-2.1 349.12-1.1 349.37-0.35L349.37-0.35Q349.07-0.1 348.5 0.23 347.92 0.55 347.07 0.55Z" opacity="1" transform="matrix(1,0,0,1,0,0)" fill="black" class="slogan-text-1" id="SvgjsPath2684"></path></svg></g></svg></g></svg></g></svg></g><g transform="matrix(1,0,0,1,0,1.8951748487707931)"><svg viewBox="0 0 148.68387200250643 198.0387076795395" height="198.0387076795395" width="148.68387200250643"><g><svg xmlns="http://www.w3.org/2000/svg" xmlns:xlink="http://www.w3.org/1999/xlink" version="1.1" x="0" y="0" viewBox="8 2.0249939 36 47.9500122" enable-background="new 0 0 52 52" xml:space="preserve" height="198.0387076795395" width="148.68387200250643" class="icon-icon-0" data-fill-palette-color="accent" id="SvgjsSvg2683"><g fill="black"><g fill="black"><path d="M35.01 9.935V2.665c0.1 0.08 0.2 0.15 0.29 0.24l7.83 7.83c0.09 0.09 0.16 0.19 0.24 0.29h-7.36C35.46 11.025 35.01 10.535 35.01 9.935z" fill="black"></path></g><g fill="black"><g fill="black"><rect x="24.3048706" y="23.0585022" width="2" height="0.9423828" fill="black"></rect></g><g fill="black"><rect x="19.5021362" y="23.0585022" width="2" height="0.9423828" fill="black"></rect></g><g fill="black"><path d="M36.01 13.025c-1.66 0-3-1.38-3-3.09V2.025H11c-1.65 0-3 1.35-3 3v41.95c0 1.65 1.35 3 3 3h30c1.66 0 3-1.35 3-3V13.025H36.01zM35.5 38.001h-19V27.001h19V38.001zM35.5 25.001h-19v-5h19V25.001z" fill="black"></path></g><g fill="black"><rect x="29.5021362" y="23.0585022" width="2" height="0.9423828" fill="black"></rect></g></g></g></svg></g></svg></g></svg></g><defs><mask></mask></defs></svg><rect width="395.52" height="138.00956639684023" fill="black" stroke="none" visibility="hidden"></rect></g></mask><mask><g id="SvgjsG2682"><svg viewBox="0 0 395.52 138.00956639684023" height="138.00956639684023" width="395.52"><g><svg viewBox="0 0 578.4195317608851 201.82905737708109" height="138.00956639684023" width="395.52"><g transform="matrix(1,0,0,1,182.8995317608851,0)"><svg viewBox="0 0 395.52 201.82905737708109" height="201.82905737708109" width="395.52"><g id="SvgjsG2681"><svg viewBox="0 0 395.52 201.82905737708109" height="201.82905737708109" width="395.52" id="SvgjsSvg2680"><g><svg viewBox="0 0 395.52 144.9349351834946" height="144.9349351834946" width="395.52"><g transform="matrix(1,0,0,1,0,0)"><svg width="395.52" viewBox="3.54 -37.55 133.98000000000002 48.99999999999999" height="144.9349351834946" data-palette-color="url(#bb0f08fc-4dc4-4ffd-b016-85643b6d89eb)"><g class="wordmark-text-0" data-fill-palette-color="primary" id="SvgjsG2679"></g></svg></g></svg></g><g transform="matrix(1,0,0,1,0,179.15059494187327)"><svg viewBox="0 0 232.20979200000002 22.678462435207827" height="22.678462435207827" width="232.20979200000002"><g transform="matrix(1,0,0,1,0,0)"><svg width="232.20979200000002" viewBox="1 -35.3 368.07 35.949999999999996" height="22.678462435207827" data-palette-color="url(#4a8a8329-957c-4fe6-bd52-1f66d5e085d5)"><path d="M42.55-35.2L42.55-35.2Q43.75-35.2 44.35-34.75 44.95-34.3 44.9-33.4L44.9-33.4Q44.9-32.95 44.75-32.33 44.6-31.7 44.45-31.1L44.45-31.1 35.75-0.1Q34.95 0.25 34.25 0.4 33.55 0.55 33 0.55L33 0.55Q32.05 0.55 31.38 0.23 30.7-0.1 30.5-0.75L30.5-0.75 23.3-26.2 15.8-0.1Q15 0.25 14.33 0.4 13.65 0.55 13.15 0.55L13.15 0.55Q12.05 0.55 11.35 0.23 10.65-0.1 10.5-0.75L10.5-0.75 2.2-32.05Q2.05-32.6 1.73-33.27 1.4-33.95 1-34.35L1-34.35Q1.35-34.75 1.95-35.02 2.55-35.3 3.45-35.3L3.45-35.3Q4.5-35.3 5.18-34.9 5.85-34.5 6.05-33.7L6.05-33.7 13.65-2.9 20.95-28.65Q21.15-29.55 21.08-30.13 21-30.7 20.8-31.1L20.8-31.1Q21.4-31.4 22.2-31.58 23-31.75 23.6-31.75L23.6-31.75Q24.3-31.75 24.88-31.53 25.45-31.3 25.6-30.85L25.6-30.85 33.55-2.95 40.45-32.05Q40.55-32.45 40.65-32.88 40.75-33.3 40.75-33.65L40.75-33.65Q40.75-34.05 40.68-34.33 40.6-34.6 40.45-34.85L40.45-34.85Q40.9-35 41.38-35.1 41.85-35.2 42.55-35.2ZM69.15 0L53.25 0Q52.25 0 51.6-0.6 50.95-1.2 50.95-2.25L50.95-2.25 50.9-28.45Q50.9-29.95 50.77-31.23 50.65-32.5 50.25-33.6L50.25-33.6Q50.95-34.25 51.67-34.45 52.4-34.65 53.7-34.65L53.7-34.65 68.8-34.65Q69.25-34.65 69.42-34.18 69.6-33.7 69.5-33.05 69.4-32.4 69.1-31.85 68.8-31.3 68.4-31.1L68.4-31.1Q65.15-31.65 61.8-32 58.45-32.35 54.9-32.4L54.9-32.4 54.95-2.2Q57.35-2.25 59.92-2.48 62.5-2.7 64.92-3 67.35-3.3 69.3-3.6L69.3-3.6Q69.7-3.35 69.92-2.78 70.15-2.2 70.15-1.58 70.15-0.95 69.9-0.48 69.65 0 69.15 0L69.15 0ZM67.2-17L54.15-17 54.15-19.4 67.2-19.4Q67.35-18.8 67.35-18.18 67.35-17.55 67.2-17L67.2-17ZM84.95 0L80.15 0Q79.1 0 78.45-0.6 77.8-1.2 77.75-2.25L77.75-2.25 77.75-28.85Q77.75-29.35 77.72-30.35 77.7-31.35 77.55-32.43 77.4-33.5 77.1-34.2L77.1-34.2Q77.9-34.6 79.52-34.95 81.15-35.3 84.25-35.3L84.25-35.3Q90.55-35.3 93.87-33.33 97.2-31.35 97.2-26.8L97.2-26.8Q97.2-23.75 95.62-21.5 94.05-19.25 91.05-18.35L91.05-18.35Q94.85-17.75 96.9-15.5 98.95-13.25 98.95-9.4L98.95-9.4Q98.95-5.9 97.3-3.83 95.65-1.75 92.52-0.88 89.4 0 84.95 0L84.95 0ZM81.8-33.4L81.8-1.85 85.1-1.85Q88.2-1.85 90.3-2.6 92.4-3.35 93.5-5 94.6-6.65 94.6-9.35L94.6-9.35Q94.6-12.5 93.42-14.2 92.25-15.9 90.12-16.57 88-17.25 85.1-17.25L85.1-17.25 81.25-17.25 80.9-19.1 86-19.1Q88-19.05 89.57-19.88 91.15-20.7 92.05-22.4 92.95-24.1 92.95-26.55L92.95-26.55Q92.95-30.1 90.87-31.8 88.8-33.5 84.05-33.5L84.05-33.5Q83.3-33.5 82.75-33.48 82.2-33.45 81.8-33.4L81.8-33.4ZM128.64 0L120.94 0Q119.89 0 119.27-0.6 118.64-1.2 118.64-2.2L118.64-2.2 118.54-28.85Q118.54-30.35 118.49-32.05 118.44-33.75 118.04-34.85L118.04-34.85Q119.39-35 121.29-35.08 123.19-35.15 125.12-35.18 127.04-35.2 128.44-35.2L128.44-35.2Q135.39-35.2 139.17-30.83 142.94-26.45 142.94-17.55L142.94-17.55Q142.94-8.3 139.19-4.15 135.44 0 128.64 0L128.64 0ZM122.54-33.3L122.59-1.85 128.44-1.85Q131.74-1.85 133.99-3.38 136.24-4.9 137.39-8.3 138.54-11.7 138.54-17.3L138.54-17.3Q138.54-25.65 135.97-29.48 133.39-33.3 128.44-33.3L128.44-33.3 122.54-33.3ZM168.99 0L153.09 0Q152.09 0 151.44-0.6 150.79-1.2 150.79-2.25L150.79-2.25 150.74-28.45Q150.74-29.95 150.61-31.23 150.49-32.5 150.09-33.6L150.09-33.6Q150.79-34.25 151.51-34.45 152.24-34.65 153.54-34.65L153.54-34.65 168.64-34.65Q169.09-34.65 169.26-34.18 169.44-33.7 169.34-33.05 169.24-32.4 168.94-31.85 168.64-31.3 168.24-31.1L168.24-31.1Q164.99-31.65 161.64-32 158.29-32.35 154.74-32.4L154.74-32.4 154.79-2.2Q157.19-2.25 159.76-2.48 162.34-2.7 164.76-3 167.19-3.3 169.14-3.6L169.14-3.6Q169.54-3.35 169.76-2.78 169.99-2.2 169.99-1.58 169.99-0.95 169.74-0.48 169.49 0 168.99 0L168.99 0ZM167.04-17L153.99-17 153.99-19.4 167.04-19.4Q167.19-18.8 167.19-18.18 167.19-17.55 167.04-17L167.04-17ZM187.09 0.55L187.09 0.55Q184.84 0.55 184.39-0.75L184.39-0.75 174.44-32.05Q174.29-32.6 173.99-33.27 173.69-33.95 173.24-34.35L173.24-34.35Q173.64-34.75 174.21-35.02 174.79-35.3 175.74-35.3L175.74-35.3Q177.89-35.3 178.29-33.7L178.29-33.7 188.19-0.3 186.89-0.3 196.19-32.15Q196.29-32.5 196.39-32.95 196.49-33.4 196.49-33.75L196.49-33.75Q196.49-34.1 196.41-34.4 196.34-34.7 196.19-34.9L196.19-34.9Q196.64-35.1 197.11-35.2 197.59-35.3 198.29-35.3L198.29-35.3Q199.49-35.3 200.09-34.85 200.69-34.4 200.64-33.5L200.64-33.5Q200.64-33.05 200.51-32.43 200.39-31.8 200.19-31.2L200.19-31.2 189.79-0.1Q188.99 0.25 188.29 0.4 187.59 0.55 187.09 0.55ZM224.83 0L208.93 0Q207.93 0 207.28-0.6 206.63-1.2 206.63-2.25L206.63-2.25 206.58-28.45Q206.58-29.95 206.46-31.23 206.33-32.5 205.93-33.6L205.93-33.6Q206.63-34.25 207.36-34.45 208.08-34.65 209.38-34.65L209.38-34.65 224.48-34.65Q224.93-34.65 225.11-34.18 225.28-33.7 225.18-33.05 225.08-32.4 224.78-31.85 224.48-31.3 224.08-31.1L224.08-31.1Q220.83-31.65 217.48-32 214.13-32.35 210.58-32.4L210.58-32.4 210.63-2.2Q213.03-2.25 215.61-2.48 218.18-2.7 220.61-3 223.03-3.3 224.98-3.6L224.98-3.6Q225.38-3.35 225.61-2.78 225.83-2.2 225.83-1.58 225.83-0.95 225.58-0.48 225.33 0 224.83 0L224.83 0ZM222.88-17L209.83-17 209.83-19.4 222.88-19.4Q223.03-18.8 223.03-18.18 223.03-17.55 222.88-17L222.88-17ZM237.43-32.9L237.43-32.9 237.48-2.4Q239.73-2.4 242.03-2.6 244.33-2.8 246.53-3.1 248.73-3.4 250.53-3.75L250.53-3.75Q250.93-3.55 251.13-2.93 251.33-2.3 251.33-1.63 251.33-0.95 251.11-0.48 250.88 0 250.33 0L250.33 0 235.78 0Q234.78 0 234.13-0.6 233.48-1.2 233.48-2.25L233.48-2.25 233.43-28.85Q233.43-30.35 233.31-31.73 233.18-33.1 232.78-34.2L232.78-34.2Q233.08-34.5 233.68-34.8 234.28-35.1 235.13-35.1L235.13-35.1Q236.13-35.1 236.78-34.52 237.43-33.95 237.43-32.9ZM267.78 0.65L267.78 0.65Q261.38 0.65 257.93-3.78 254.48-8.2 254.48-17.3L254.48-17.3Q254.48-26.4 257.93-30.85 261.38-35.3 267.78-35.3L267.78-35.3Q274.23-35.3 277.68-30.85 281.13-26.4 281.13-17.3L281.13-17.3Q281.13-8.2 277.68-3.78 274.23 0.65 267.78 0.65ZM267.78-1.2L267.78-1.2Q272.18-1.2 274.43-5.08 276.68-8.95 276.68-17.3L276.68-17.3Q276.68-25.7 274.43-29.58 272.18-33.45 267.78-33.45L267.78-33.45Q263.48-33.45 261.2-29.58 258.93-25.7 258.93-17.3L258.93-17.3Q258.93-8.95 261.2-5.08 263.48-1.2 267.78-1.2ZM296.08 0L291.28 0Q290.23 0 289.58-0.6 288.93-1.2 288.88-2.25L288.88-2.25 288.88-28.85Q288.88-29.35 288.85-30.35 288.83-31.35 288.68-32.43 288.53-33.5 288.23-34.2L288.23-34.2Q289.03-34.6 290.65-34.95 292.28-35.3 295.38-35.3L295.38-35.3Q301.68-35.3 305-33.33 308.33-31.35 308.33-26.8L308.33-26.8Q308.33-23.75 306.75-21.5 305.18-19.25 302.18-18.35L302.18-18.35Q305.98-17.75 308.03-15.5 310.08-13.25 310.08-9.4L310.08-9.4Q310.08-5.9 308.43-3.83 306.78-1.75 303.65-0.88 300.53 0 296.08 0L296.08 0ZM292.93-33.4L292.93-1.85 296.23-1.85Q299.33-1.85 301.43-2.6 303.53-3.35 304.63-5 305.73-6.65 305.73-9.35L305.73-9.35Q305.73-12.5 304.55-14.2 303.38-15.9 301.25-16.57 299.13-17.25 296.23-17.25L296.23-17.25 292.38-17.25 292.03-19.1 297.13-19.1Q299.13-19.05 300.7-19.88 302.28-20.7 303.18-22.4 304.08-24.1 304.08-26.55L304.08-26.55Q304.08-30.1 302-31.8 299.93-33.5 295.18-33.5L295.18-33.5Q294.43-33.5 293.88-33.48 293.33-33.45 292.93-33.4L292.93-33.4ZM336.07 0L320.17 0Q319.17 0 318.52-0.6 317.87-1.2 317.87-2.25L317.87-2.25 317.82-28.45Q317.82-29.95 317.7-31.23 317.57-32.5 317.17-33.6L317.17-33.6Q317.87-34.25 318.6-34.45 319.32-34.65 320.62-34.65L320.62-34.65 335.72-34.65Q336.17-34.65 336.35-34.18 336.52-33.7 336.42-33.05 336.32-32.4 336.02-31.85 335.72-31.3 335.32-31.1L335.32-31.1Q332.07-31.65 328.72-32 325.37-32.35 321.82-32.4L321.82-32.4 321.87-2.2Q324.27-2.25 326.85-2.48 329.42-2.7 331.85-3 334.27-3.3 336.22-3.6L336.22-3.6Q336.62-3.35 336.85-2.78 337.07-2.2 337.07-1.58 337.07-0.95 336.82-0.48 336.57 0 336.07 0L336.07 0ZM334.12-17L321.07-17 321.07-19.4 334.12-19.4Q334.27-18.8 334.27-18.18 334.27-17.55 334.12-17L334.12-17ZM347.07 0.55L347.07 0.55Q346.02 0.55 345.37-0.05 344.72-0.65 344.67-1.65L344.67-1.65 344.67-28.85Q344.67-29.35 344.65-30.35 344.62-31.35 344.47-32.43 344.32-33.5 344.02-34.2L344.02-34.2Q344.82-34.6 346.52-34.95 348.22-35.3 351.37-35.3L351.37-35.3Q358.42-35.3 361.87-33.1 365.32-30.9 365.32-25.85L365.32-25.85Q365.32-22.95 364.02-20.8 362.72-18.65 360.42-17.4 358.12-16.15 355.12-15.95L355.12-15.95 355.42-16.65Q357.47-16.65 358.8-15.93 360.12-15.2 360.97-14 361.82-12.8 362.47-11.3L362.47-11.3 364.97-5.4Q365.57-3.9 366.12-3.3 366.67-2.7 367.32-2.65L367.32-2.65Q367.57-2.65 368-2.78 368.42-2.9 368.77-3.3L368.77-3.3Q368.97-2.95 369.02-2.63 369.07-2.3 369.07-2L369.07-2Q369.07-1.15 368.55-0.58 368.02 0 367.32 0.28 366.62 0.55 366.07 0.55L366.07 0.55Q364.77 0.55 363.87-0.05 362.97-0.65 362.32-1.78 361.67-2.9 361.02-4.4L361.02-4.4 358.72-10.3Q358.22-11.55 357.62-12.7 357.02-13.85 355.85-14.55 354.67-15.25 352.42-15.25L352.42-15.25 348.22-15.3 347.77-17.15Q348.72-17.1 349.92-17.07 351.12-17.05 352.62-17.05L352.62-17.05Q355.02-17.1 356.9-18.15 358.77-19.2 359.85-21.08 360.92-22.95 360.92-25.5L360.92-25.5Q360.92-29.55 358.72-31.53 356.52-33.5 351.57-33.5L351.57-33.5Q350.57-33.5 349.87-33.48 349.17-33.45 348.72-33.35L348.72-33.35 348.72-5.55Q348.72-5.05 348.77-4.08 348.82-3.1 348.97-2.1 349.12-1.1 349.37-0.35L349.37-0.35Q349.07-0.1 348.5 0.23 347.92 0.55 347.07 0.55Z" opacity="1" transform="matrix(1,0,0,1,0,0)" fill="black" class="slogan-text-1" id="SvgjsPath2678"></path></svg></g></svg></g></svg></g></svg></g><g transform="matrix(1,0,0,1,0,1.8951748487707931)"><svg viewBox="0 0 148.68387200250643 198.0387076795395" height="198.0387076795395" width="148.68387200250643"><g><svg xmlns="http://www.w3.org/2000/svg" xmlns:xlink="http://www.w3.org/1999/xlink" version="1.1" x="0" y="0" viewBox="8 2.0249939 36 47.9500122" enable-background="new 0 0 52 52" xml:space="preserve" height="198.0387076795395" width="148.68387200250643" class="icon-icon-0" data-fill-palette-color="accent" id="SvgjsSvg2677"><g fill="black"><g fill="black"><path d="M35.01 9.935V2.665c0.1 0.08 0.2 0.15 0.29 0.24l7.83 7.83c0.09 0.09 0.16 0.19 0.24 0.29h-7.36C35.46 11.025 35.01 10.535 35.01 9.935z" fill="black"></path></g><g fill="black"><g fill="black"><rect x="24.3048706" y="23.0585022" width="2" height="0.9423828" fill="black"></rect></g><g fill="black"><rect x="19.5021362" y="23.0585022" width="2" height="0.9423828" fill="black"></rect></g><g fill="black"><path d="M36.01 13.025c-1.66 0-3-1.38-3-3.09V2.025H11c-1.65 0-3 1.35-3 3v41.95c0 1.65 1.35 3 3 3h30c1.66 0 3-1.35 3-3V13.025H36.01zM35.5 38.001h-19V27.001h19V38.001zM35.5 25.001h-19v-5h19V25.001z" fill="black"></path></g><g fill="black"><rect x="29.5021362" y="23.0585022" width="2" height="0.9423828" fill="black"></rect></g></g></g></svg></g></svg></g></svg></g><defs><mask></mask></defs><mask><g id="SvgjsG2676"><svg viewBox="0 0 395.52 138.00956639684023" height="138.00956639684023" width="395.52"><g><svg viewBox="0 0 578.4195317608851 201.82905737708109" height="138.00956639684023" width="395.52"><g transform="matrix(1,0,0,1,182.8995317608851,0)"><svg viewBox="0 0 395.52 201.82905737708109" height="201.82905737708109" width="395.52"><g id="SvgjsG2675"><svg viewBox="0 0 395.52 201.82905737708109" height="201.82905737708109" width="395.52" id="SvgjsSvg2674"><g><svg viewBox="0 0 395.52 144.9349351834946" height="144.9349351834946" width="395.52"><g transform="matrix(1,0,0,1,0,0)"><svg width="395.52" viewBox="3.54 -37.55 133.98000000000002 48.99999999999999" height="144.9349351834946" data-palette-color="url(#bb0f08fc-4dc4-4ffd-b016-85643b6d89eb)"><g class="wordmark-text-0" data-fill-palette-color="primary" id="SvgjsG2673"><path d="M32.47-20.7L32.47-14.31 12.43-14.31 12.43-20.7 32.47-20.7ZM35.33-6.35L35.33 0 12.43 0Q11.11 0 9.55-0.46 7.98-0.93 6.65-1.99 5.32-3.05 4.43-4.75 3.54-6.45 3.54-8.91L3.54-8.91 3.54-31.81Q3.54-32.47 3.78-33.06 4.03-33.64 4.46-34.08 4.88-34.52 5.47-34.77 6.05-35.01 6.74-35.01L6.74-35.01 35.33-35.01 35.33-28.66 9.89-28.66 9.89-8.91Q9.89-7.67 10.55-7.01 11.21-6.35 12.48-6.35L12.48-6.35 35.33-6.35ZM69.85-26.39L69.85 2.54Q69.85 4.17 69.43 5.48 69.02 6.79 68.33 7.78 67.65 8.76 66.75 9.46 65.84 10.16 64.85 10.6 63.86 11.04 62.86 11.24 61.86 11.45 60.96 11.45L60.96 11.45 49.51 11.45 49.51 5.1 60.96 5.1Q62.23 5.1 62.86 4.44 63.5 3.78 63.5 2.54L63.5 2.54 63.5-26.39 69.85-26.39ZM60.96-6.35L60.96 0 49.51 0Q48.14 0 46.59-0.46 45.04-0.93 43.7-1.99 42.36-3.05 41.48-4.75 40.6-6.45 40.6-8.91L40.6-8.91 40.6-26.39 46.95-26.39 46.95-8.91Q46.95-7.67 47.6-7.01 48.26-6.35 49.56-6.35L49.56-6.35 60.96-6.35ZM103.14-17.65L103.14-8.74Q103.14-7.42 102.68-5.9 102.22-4.37 101.18-3.06 100.14-1.76 98.47-0.88 96.8 0 94.4 0L94.4 0 82.95 0Q81.64 0 80.11-0.46 78.58-0.93 77.28-1.97 75.97-3 75.09-4.68 74.21-6.35 74.21-8.74L74.21-8.74Q74.21-10.06 74.68-11.6 75.14-13.13 76.18-14.44 77.22-15.75 78.89-16.63 80.56-17.5 82.95-17.5L82.95-17.5 94.4-17.5 94.4-11.45 82.95-11.45Q81.66-11.45 80.95-10.66 80.24-9.86 80.24-8.69L80.24-8.69Q80.24-7.45 81.06-6.75 81.88-6.05 83-6.05L83-6.05 94.4-6.05Q95.7-6.05 96.41-6.84 97.11-7.62 97.11-8.79L97.11-8.79 97.11-17.65Q97.11-18.9 96.35-19.63 95.58-20.36 94.4-20.36L94.4-20.36 80.46-20.36 80.46-26.39 94.4-26.39Q95.72-26.39 97.25-25.93 98.77-25.46 100.08-24.43 101.39-23.39 102.27-21.72 103.14-20.04 103.14-17.65L103.14-17.65ZM137.52-37.55L137.52-8.91Q137.52-7.28 137.1-5.97 136.69-4.66 136-3.67 135.32-2.69 134.42-1.99 133.51-1.29 132.52-0.85 131.54-0.42 130.52-0.21 129.51 0 128.61 0L128.61 0 117.16 0Q115.52 0 114.23-0.42 112.93-0.83 111.94-1.53 110.95-2.22 110.26-3.13 109.56-4.03 109.12-5.02 108.68-6.01 108.48-7.02 108.27-8.03 108.27-8.91L108.27-8.91 108.27-17.5Q108.27-19.95 109.16-21.64 110.05-23.34 111.38-24.4 112.71-25.46 114.27-25.93 115.84-26.39 117.16-26.39L117.16-26.39 128.61-26.39 128.61-20.04 117.2-20.04Q115.93-20.04 115.28-19.4 114.62-18.75 114.62-17.5L114.62-17.5 114.62-8.96Q114.62-7.67 115.26-7.01 115.91-6.35 117.16-6.35L117.16-6.35 128.61-6.35Q129.9-6.35 130.53-7.01 131.17-7.67 131.17-8.91L131.17-8.91 131.17-37.55 137.52-37.55Z" fill="black"></path></g></svg></g></svg></g><g transform="matrix(1,0,0,1,0,179.15059494187327)"><svg viewBox="0 0 232.20979200000002 22.678462435207827" height="22.678462435207827" width="232.20979200000002"><g transform="matrix(1,0,0,1,0,0)"><svg width="232.20979200000002" viewBox="1 -35.3 368.07 35.949999999999996" height="22.678462435207827" data-palette-color="url(#4a8a8329-957c-4fe6-bd52-1f66d5e085d5)"><path d="M42.55-35.2L42.55-35.2Q43.75-35.2 44.35-34.75 44.95-34.3 44.9-33.4L44.9-33.4Q44.9-32.95 44.75-32.33 44.6-31.7 44.45-31.1L44.45-31.1 35.75-0.1Q34.95 0.25 34.25 0.4 33.55 0.55 33 0.55L33 0.55Q32.05 0.55 31.38 0.23 30.7-0.1 30.5-0.75L30.5-0.75 23.3-26.2 15.8-0.1Q15 0.25 14.33 0.4 13.65 0.55 13.15 0.55L13.15 0.55Q12.05 0.55 11.35 0.23 10.65-0.1 10.5-0.75L10.5-0.75 2.2-32.05Q2.05-32.6 1.73-33.27 1.4-33.95 1-34.35L1-34.35Q1.35-34.75 1.95-35.02 2.55-35.3 3.45-35.3L3.45-35.3Q4.5-35.3 5.18-34.9 5.85-34.5 6.05-33.7L6.05-33.7 13.65-2.9 20.95-28.65Q21.15-29.55 21.08-30.13 21-30.7 20.8-31.1L20.8-31.1Q21.4-31.4 22.2-31.58 23-31.75 23.6-31.75L23.6-31.75Q24.3-31.75 24.88-31.53 25.45-31.3 25.6-30.85L25.6-30.85 33.55-2.95 40.45-32.05Q40.55-32.45 40.65-32.88 40.75-33.3 40.75-33.65L40.75-33.65Q40.75-34.05 40.68-34.33 40.6-34.6 40.45-34.85L40.45-34.85Q40.9-35 41.38-35.1 41.85-35.2 42.55-35.2ZM69.15 0L53.25 0Q52.25 0 51.6-0.6 50.95-1.2 50.95-2.25L50.95-2.25 50.9-28.45Q50.9-29.95 50.77-31.23 50.65-32.5 50.25-33.6L50.25-33.6Q50.95-34.25 51.67-34.45 52.4-34.65 53.7-34.65L53.7-34.65 68.8-34.65Q69.25-34.65 69.42-34.18 69.6-33.7 69.5-33.05 69.4-32.4 69.1-31.85 68.8-31.3 68.4-31.1L68.4-31.1Q65.15-31.65 61.8-32 58.45-32.35 54.9-32.4L54.9-32.4 54.95-2.2Q57.35-2.25 59.92-2.48 62.5-2.7 64.92-3 67.35-3.3 69.3-3.6L69.3-3.6Q69.7-3.35 69.92-2.78 70.15-2.2 70.15-1.58 70.15-0.95 69.9-0.48 69.65 0 69.15 0L69.15 0ZM67.2-17L54.15-17 54.15-19.4 67.2-19.4Q67.35-18.8 67.35-18.18 67.35-17.55 67.2-17L67.2-17ZM84.95 0L80.15 0Q79.1 0 78.45-0.6 77.8-1.2 77.75-2.25L77.75-2.25 77.75-28.85Q77.75-29.35 77.72-30.35 77.7-31.35 77.55-32.43 77.4-33.5 77.1-34.2L77.1-34.2Q77.9-34.6 79.52-34.95 81.15-35.3 84.25-35.3L84.25-35.3Q90.55-35.3 93.87-33.33 97.2-31.35 97.2-26.8L97.2-26.8Q97.2-23.75 95.62-21.5 94.05-19.25 91.05-18.35L91.05-18.35Q94.85-17.75 96.9-15.5 98.95-13.25 98.95-9.4L98.95-9.4Q98.95-5.9 97.3-3.83 95.65-1.75 92.52-0.88 89.4 0 84.95 0L84.95 0ZM81.8-33.4L81.8-1.85 85.1-1.85Q88.2-1.85 90.3-2.6 92.4-3.35 93.5-5 94.6-6.65 94.6-9.35L94.6-9.35Q94.6-12.5 93.42-14.2 92.25-15.9 90.12-16.57 88-17.25 85.1-17.25L85.1-17.25 81.25-17.25 80.9-19.1 86-19.1Q88-19.05 89.57-19.88 91.15-20.7 92.05-22.4 92.95-24.1 92.95-26.55L92.95-26.55Q92.95-30.1 90.87-31.8 88.8-33.5 84.05-33.5L84.05-33.5Q83.3-33.5 82.75-33.48 82.2-33.45 81.8-33.4L81.8-33.4ZM128.64 0L120.94 0Q119.89 0 119.27-0.6 118.64-1.2 118.64-2.2L118.64-2.2 118.54-28.85Q118.54-30.35 118.49-32.05 118.44-33.75 118.04-34.85L118.04-34.85Q119.39-35 121.29-35.08 123.19-35.15 125.12-35.18 127.04-35.2 128.44-35.2L128.44-35.2Q135.39-35.2 139.17-30.83 142.94-26.45 142.94-17.55L142.94-17.55Q142.94-8.3 139.19-4.15 135.44 0 128.64 0L128.64 0ZM122.54-33.3L122.59-1.85 128.44-1.85Q131.74-1.85 133.99-3.38 136.24-4.9 137.39-8.3 138.54-11.7 138.54-17.3L138.54-17.3Q138.54-25.65 135.97-29.48 133.39-33.3 128.44-33.3L128.44-33.3 122.54-33.3ZM168.99 0L153.09 0Q152.09 0 151.44-0.6 150.79-1.2 150.79-2.25L150.79-2.25 150.74-28.45Q150.74-29.95 150.61-31.23 150.49-32.5 150.09-33.6L150.09-33.6Q150.79-34.25 151.51-34.45 152.24-34.65 153.54-34.65L153.54-34.65 168.64-34.65Q169.09-34.65 169.26-34.18 169.44-33.7 169.34-33.05 169.24-32.4 168.94-31.85 168.64-31.3 168.24-31.1L168.24-31.1Q164.99-31.65 161.64-32 158.29-32.35 154.74-32.4L154.74-32.4 154.79-2.2Q157.19-2.25 159.76-2.48 162.34-2.7 164.76-3 167.19-3.3 169.14-3.6L169.14-3.6Q169.54-3.35 169.76-2.78 169.99-2.2 169.99-1.58 169.99-0.95 169.74-0.48 169.49 0 168.99 0L168.99 0ZM167.04-17L153.99-17 153.99-19.4 167.04-19.4Q167.19-18.8 167.19-18.18 167.19-17.55 167.04-17L167.04-17ZM187.09 0.55L187.09 0.55Q184.84 0.55 184.39-0.75L184.39-0.75 174.44-32.05Q174.29-32.6 173.99-33.27 173.69-33.95 173.24-34.35L173.24-34.35Q173.64-34.75 174.21-35.02 174.79-35.3 175.74-35.3L175.74-35.3Q177.89-35.3 178.29-33.7L178.29-33.7 188.19-0.3 186.89-0.3 196.19-32.15Q196.29-32.5 196.39-32.95 196.49-33.4 196.49-33.75L196.49-33.75Q196.49-34.1 196.41-34.4 196.34-34.7 196.19-34.9L196.19-34.9Q196.64-35.1 197.11-35.2 197.59-35.3 198.29-35.3L198.29-35.3Q199.49-35.3 200.09-34.85 200.69-34.4 200.64-33.5L200.64-33.5Q200.64-33.05 200.51-32.43 200.39-31.8 200.19-31.2L200.19-31.2 189.79-0.1Q188.99 0.25 188.29 0.4 187.59 0.55 187.09 0.55ZM224.83 0L208.93 0Q207.93 0 207.28-0.6 206.63-1.2 206.63-2.25L206.63-2.25 206.58-28.45Q206.58-29.95 206.46-31.23 206.33-32.5 205.93-33.6L205.93-33.6Q206.63-34.25 207.36-34.45 208.08-34.65 209.38-34.65L209.38-34.65 224.48-34.65Q224.93-34.65 225.11-34.18 225.28-33.7 225.18-33.05 225.08-32.4 224.78-31.85 224.48-31.3 224.08-31.1L224.08-31.1Q220.83-31.65 217.48-32 214.13-32.35 210.58-32.4L210.58-32.4 210.63-2.2Q213.03-2.25 215.61-2.48 218.18-2.7 220.61-3 223.03-3.3 224.98-3.6L224.98-3.6Q225.38-3.35 225.61-2.78 225.83-2.2 225.83-1.58 225.83-0.95 225.58-0.48 225.33 0 224.83 0L224.83 0ZM222.88-17L209.83-17 209.83-19.4 222.88-19.4Q223.03-18.8 223.03-18.18 223.03-17.55 222.88-17L222.88-17ZM237.43-32.9L237.43-32.9 237.48-2.4Q239.73-2.4 242.03-2.6 244.33-2.8 246.53-3.1 248.73-3.4 250.53-3.75L250.53-3.75Q250.93-3.55 251.13-2.93 251.33-2.3 251.33-1.63 251.33-0.95 251.11-0.48 250.88 0 250.33 0L250.33 0 235.78 0Q234.78 0 234.13-0.6 233.48-1.2 233.48-2.25L233.48-2.25 233.43-28.85Q233.43-30.35 233.31-31.73 233.18-33.1 232.78-34.2L232.78-34.2Q233.08-34.5 233.68-34.8 234.28-35.1 235.13-35.1L235.13-35.1Q236.13-35.1 236.78-34.52 237.43-33.95 237.43-32.9ZM267.78 0.65L267.78 0.65Q261.38 0.65 257.93-3.78 254.48-8.2 254.48-17.3L254.48-17.3Q254.48-26.4 257.93-30.85 261.38-35.3 267.78-35.3L267.78-35.3Q274.23-35.3 277.68-30.85 281.13-26.4 281.13-17.3L281.13-17.3Q281.13-8.2 277.68-3.78 274.23 0.65 267.78 0.65ZM267.78-1.2L267.78-1.2Q272.18-1.2 274.43-5.08 276.68-8.95 276.68-17.3L276.68-17.3Q276.68-25.7 274.43-29.58 272.18-33.45 267.78-33.45L267.78-33.45Q263.48-33.45 261.2-29.58 258.93-25.7 258.93-17.3L258.93-17.3Q258.93-8.95 261.2-5.08 263.48-1.2 267.78-1.2ZM296.08 0L291.28 0Q290.23 0 289.58-0.6 288.93-1.2 288.88-2.25L288.88-2.25 288.88-28.85Q288.88-29.35 288.85-30.35 288.83-31.35 288.68-32.43 288.53-33.5 288.23-34.2L288.23-34.2Q289.03-34.6 290.65-34.95 292.28-35.3 295.38-35.3L295.38-35.3Q301.68-35.3 305-33.33 308.33-31.35 308.33-26.8L308.33-26.8Q308.33-23.75 306.75-21.5 305.18-19.25 302.18-18.35L302.18-18.35Q305.98-17.75 308.03-15.5 310.08-13.25 310.08-9.4L310.08-9.4Q310.08-5.9 308.43-3.83 306.78-1.75 303.65-0.88 300.53 0 296.08 0L296.08 0ZM292.93-33.4L292.93-1.85 296.23-1.85Q299.33-1.85 301.43-2.6 303.53-3.35 304.63-5 305.73-6.65 305.73-9.35L305.73-9.35Q305.73-12.5 304.55-14.2 303.38-15.9 301.25-16.57 299.13-17.25 296.23-17.25L296.23-17.25 292.38-17.25 292.03-19.1 297.13-19.1Q299.13-19.05 300.7-19.88 302.28-20.7 303.18-22.4 304.08-24.1 304.08-26.55L304.08-26.55Q304.08-30.1 302-31.8 299.93-33.5 295.18-33.5L295.18-33.5Q294.43-33.5 293.88-33.48 293.33-33.45 292.93-33.4L292.93-33.4ZM336.07 0L320.17 0Q319.17 0 318.52-0.6 317.87-1.2 317.87-2.25L317.87-2.25 317.82-28.45Q317.82-29.95 317.7-31.23 317.57-32.5 317.17-33.6L317.17-33.6Q317.87-34.25 318.6-34.45 319.32-34.65 320.62-34.65L320.62-34.65 335.72-34.65Q336.17-34.65 336.35-34.18 336.52-33.7 336.42-33.05 336.32-32.4 336.02-31.85 335.72-31.3 335.32-31.1L335.32-31.1Q332.07-31.65 328.72-32 325.37-32.35 321.82-32.4L321.82-32.4 321.87-2.2Q324.27-2.25 326.85-2.48 329.42-2.7 331.85-3 334.27-3.3 336.22-3.6L336.22-3.6Q336.62-3.35 336.85-2.78 337.07-2.2 337.07-1.58 337.07-0.95 336.82-0.48 336.57 0 336.07 0L336.07 0ZM334.12-17L321.07-17 321.07-19.4 334.12-19.4Q334.27-18.8 334.27-18.18 334.27-17.55 334.12-17L334.12-17ZM347.07 0.55L347.07 0.55Q346.02 0.55 345.37-0.05 344.72-0.65 344.67-1.65L344.67-1.65 344.67-28.85Q344.67-29.35 344.65-30.35 344.62-31.35 344.47-32.43 344.32-33.5 344.02-34.2L344.02-34.2Q344.82-34.6 346.52-34.95 348.22-35.3 351.37-35.3L351.37-35.3Q358.42-35.3 361.87-33.1 365.32-30.9 365.32-25.85L365.32-25.85Q365.32-22.95 364.02-20.8 362.72-18.65 360.42-17.4 358.12-16.15 355.12-15.95L355.12-15.95 355.42-16.65Q357.47-16.65 358.8-15.93 360.12-15.2 360.97-14 361.82-12.8 362.47-11.3L362.47-11.3 364.97-5.4Q365.57-3.9 366.12-3.3 366.67-2.7 367.32-2.65L367.32-2.65Q367.57-2.65 368-2.78 368.42-2.9 368.77-3.3L368.77-3.3Q368.97-2.95 369.02-2.63 369.07-2.3 369.07-2L369.07-2Q369.07-1.15 368.55-0.58 368.02 0 367.32 0.28 366.62 0.55 366.07 0.55L366.07 0.55Q364.77 0.55 363.87-0.05 362.97-0.65 362.32-1.78 361.67-2.9 361.02-4.4L361.02-4.4 358.72-10.3Q358.22-11.55 357.62-12.7 357.02-13.85 355.85-14.55 354.67-15.25 352.42-15.25L352.42-15.25 348.22-15.3 347.77-17.15Q348.72-17.1 349.92-17.07 351.12-17.05 352.62-17.05L352.62-17.05Q355.02-17.1 356.9-18.15 358.77-19.2 359.85-21.08 360.92-22.95 360.92-25.5L360.92-25.5Q360.92-29.55 358.72-31.53 356.52-33.5 351.57-33.5L351.57-33.5Q350.57-33.5 349.87-33.48 349.17-33.45 348.72-33.35L348.72-33.35 348.72-5.55Q348.72-5.05 348.77-4.08 348.82-3.1 348.97-2.1 349.12-1.1 349.37-0.35L349.37-0.35Q349.07-0.1 348.5 0.23 347.92 0.55 347.07 0.55Z" opacity="1" transform="matrix(1,0,0,1,0,0)" fill="black" class="slogan-text-1" id="SvgjsPath2672"></path></svg></g></svg></g></svg></g></svg></g><g transform="matrix(1,0,0,1,0,1.8951748487707931)"><svg viewBox="0 0 148.68387200250643 198.0387076795395" height="198.0387076795395" width="148.68387200250643"><g><svg xmlns="http://www.w3.org/2000/svg" xmlns:xlink="http://www.w3.org/1999/xlink" version="1.1" x="0" y="0" viewBox="8 2.0249939 36 47.9500122" enable-background="new 0 0 52 52" xml:space="preserve" height="198.0387076795395" width="148.68387200250643" class="icon-icon-0" data-fill-palette-color="accent" id="SvgjsSvg2671"><g fill="black"><g fill="black"><path d="M35.01 9.935V2.665c0.1 0.08 0.2 0.15 0.29 0.24l7.83 7.83c0.09 0.09 0.16 0.19 0.24 0.29h-7.36C35.46 11.025 35.01 10.535 35.01 9.935z" fill="black"></path></g><g fill="black"><g fill="black"><rect x="24.3048706" y="23.0585022" width="2" height="0.9423828" fill="black"></rect></g><g fill="black"><rect x="19.5021362" y="23.0585022" width="2" height="0.9423828" fill="black"></rect></g><g fill="black"><path d="M36.01 13.025c-1.66 0-3-1.38-3-3.09V2.025H11c-1.65 0-3 1.35-3 3v41.95c0 1.65 1.35 3 3 3h30c1.66 0 3-1.35 3-3V13.025H36.01zM35.5 38.001h-19V27.001h19V38.001zM35.5 25.001h-19v-5h19V25.001z" fill="black"></path></g><g fill="black"><rect x="29.5021362" y="23.0585022" width="2" height="0.9423828" fill="black"></rect></g></g></g></svg></g></svg></g></svg></g><defs><mask></mask></defs></svg><rect width="395.52" height="138.00956639684023" fill="black" stroke="none" visibility="hidden"></rect></g></mask></svg><rect width="395.52" height="138.00956639684023" fill="black" stroke="none" visibility="hidden"></rect></g></mask></svg><rect width="395.52" height="138.00956639684023" fill="black" stroke="none" visibility="hidden"></rect></g></mask><linearGradient x1="0" x2="1" y1="0.578" y2="0.595" id="c3c8be12-eae8-460a-9f14-03e234069d14"><stop stop-color="#6ee2f5" offset="0"></stop><stop stop-color="#6454f0" offset="1"></stop></linearGradient><rect width="395.52" height="138.00956639684023" fill="url(#c3c8be12-eae8-460a-9f14-03e234069d14)" mask="url(#9f202ebe-3d72-45d4-b900-7dc2553c731a)" data-fill-palette-color="accent"></rect></svg><rect width="395.52" height="138.00956639684023" fill="none" stroke="none" visibility="hidden"></rect></g></svg></g></svg>